<?xml version="1.0" encoding="UTF-8" standalone="no"?>
<!-- Created with Inkscape (http://www.inkscape.org/) -->

<svg
   xmlns:dc="http://purl.org/dc/elements/1.1/"
   xmlns:cc="http://creativecommons.org/ns#"
   xmlns:rdf="http://www.w3.org/1999/02/22-rdf-syntax-ns#"
   xmlns:svg="http://www.w3.org/2000/svg"
   xmlns="http://www.w3.org/2000/svg"
   xmlns:sodipodi="http://sodipodi.sourceforge.net/DTD/sodipodi-0.dtd"
   xmlns:inkscape="http://www.inkscape.org/namespaces/inkscape"
   width="1400"
   height="600"
   id="svg4152"
   version="1.1"
   inkscape:version="0.91 r13725"
   viewBox="0 0 1400 600"
   sodipodi:docname="fonction2.svg">
  <defs
     id="defs4154">
    <marker
       inkscape:stockid="Arrow1Mend"
       orient="auto"
       refY="0"
       refX="0"
       id="Arrow1Mend"
       style="overflow:visible"
       inkscape:isstock="true">
      <path
         id="path4744"
         d="M 0,0 5,-5 -12.5,0 5,5 0,0 Z"
         style="fill:#002b36;fill-opacity:1;fill-rule:evenodd;stroke:#002b36;stroke-width:1pt;stroke-opacity:1"
         transform="matrix(-0.4,0,0,-0.4,-4,0)"
         inkscape:connector-curvature="0" />
    </marker>
    <marker
       inkscape:stockid="Arrow1Mend"
       orient="auto"
       refY="0"
       refX="0"
       id="Arrow1Mend-3"
       style="overflow:visible"
       inkscape:isstock="true">
      <path
         inkscape:connector-curvature="0"
         id="path4744-3"
         d="M 0,0 5,-5 -12.5,0 5,5 0,0 Z"
         style="fill:#b58900;fill-opacity:1;fill-rule:evenodd;stroke:#b58900;stroke-width:1pt;stroke-opacity:1"
         transform="matrix(-0.4,0,0,-0.4,-4,0)" />
    </marker>
    <marker
       inkscape:stockid="Arrow1Mend"
       orient="auto"
       refY="0"
       refX="0"
       id="Arrow1Mend-3-1"
       style="overflow:visible"
       inkscape:isstock="true">
      <path
         inkscape:connector-curvature="0"
         id="path4744-3-9"
         d="M 0,0 5,-5 -12.5,0 5,5 0,0 Z"
         style="fill:#b58900;fill-opacity:1;fill-rule:evenodd;stroke:#b58900;stroke-width:1pt;stroke-opacity:1"
         transform="matrix(-0.4,0,0,-0.4,-4,0)" />
    </marker>
  </defs>
  <sodipodi:namedview
     id="base"
     pagecolor="#ffffff"
     bordercolor="#666666"
     borderopacity="1.0"
     inkscape:pageopacity="0.0"
     inkscape:pageshadow="2"
     inkscape:zoom="0.6325099"
     inkscape:cx="610.75552"
     inkscape:cy="282.15738"
     inkscape:current-layer="layer2"
     inkscape:document-units="px"
     showgrid="true"
     inkscape:window-width="1600"
     inkscape:window-height="874"
     inkscape:window-x="0"
     inkscape:window-y="0"
     inkscape:window-maximized="1">
    <inkscape:grid
       type="xygrid"
       id="grid4172" />
  </sodipodi:namedview>
  <metadata
     id="metadata4157">
    <rdf:RDF>
      <cc:Work
         rdf:about="">
        <dc:format>image/svg+xml</dc:format>
        <dc:type
           rdf:resource="http://purl.org/dc/dcmitype/StillImage" />
        <dc:title></dc:title>
      </cc:Work>
    </rdf:RDF>
  </metadata>
  <g
     id="layer1"
     inkscape:label="base"
     inkscape:groupmode="layer"
     style="opacity:0.97000002">
    <rect
       style="opacity:0.93000034;fill:none;fill-opacity:1;fill-rule:nonzero;stroke:#859900;stroke-width:4;stroke-linecap:round;stroke-linejoin:round;stroke-miterlimit:4;stroke-dasharray:none;stroke-dashoffset:0;stroke-opacity:1"
       id="rect4700"
       width="251.69885"
       height="144.26653"
       x="575.30359"
       y="169.04161" />
    <g
       style="font-style:normal;font-variant:normal;font-weight:normal;font-stretch:normal;font-size:90px;line-height:125%;font-family:cmsy10;-inkscape-font-specification:'cmsy10, Normal';text-align:start;letter-spacing:0px;word-spacing:0px;writing-mode:lr-tb;text-anchor:start;fill:#859900;fill-opacity:1;stroke:#859900;stroke-width:1px;stroke-linecap:butt;stroke-linejoin:miter;stroke-opacity:1"
       id="text4702"
       transform="translate(6.587906,-75.372116)">
      <path
         d="m 658.0246,341.74963 q 0,-1.58203 2.54883,-3.07617 2.54882,-1.53808 4.26269,-1.71387 l 0.57129,0 q 0.30762,0.17579 1.45019,2.10938 1.18653,1.88965 2.85645,3.16406 1.71387,1.23047 4.79004,1.23047 0.61523,-0.79101 1.05469,-1.53808 6.45996,-11.95313 10.98632,-24.38965 2.46094,-6.76758 4.39454,-13.97461 1.97754,-7.25098 3.07617,-13.93067 l -3.7793,0 q -8.96484,0 -11.33789,8.39356 -0.87891,1.58203 -2.90039,2.76855 -1.97754,1.18653 -3.86719,1.36231 l -0.52734,0 q -0.61524,-0.39551 -0.61524,-0.92285 1.36231,-4.79004 5.36133,-8.65723 4.04297,-3.86719 9.36035,-6.06445 5.31739,-2.19727 10.28321,-2.19727 l 26.36718,0 q 8.74512,0 8.74512,3.42773 0,1.97754 -2.37305,3.60352 -2.37304,1.58203 -4.6582,1.80176 l -0.43945,0 q -0.65918,-0.35156 -0.65918,-0.52735 0.0439,-0.26367 0.0879,-0.57128 0.0439,-0.30762 0.0439,-0.43946 0,-1.97754 -7.4707,-1.97754 l -14.23828,0 q -2.54883,12.61231 -6.5918,23.77442 l 22.71973,0 q 0.61523,0.30761 0.61523,0.79101 -0.57128,2.15332 -2.68066,3.69141 -2.10937,1.49414 -4.43848,1.71387 l -0.52734,0 q -0.65918,-0.35157 -0.65918,-0.70313 l 0,-0.17578 -17.00684,0 q -3.95507,10.10742 -9.36035,20.12695 -2.24121,3.99903 -6.37207,6.94336 -4.13086,2.98828 -8.26172,2.98828 l -0.48339,0 q -3.51563,0 -6.32813,-1.88964 -2.8125,-1.84571 -3.99902,-5.14161 z"
         id="path5062"
         inkscape:connector-curvature="0" />
    </g>
  </g>
  <g
     inkscape:groupmode="layer"
     id="layer2"
     inkscape:label="frag1">
    <g
       style="font-style:normal;font-variant:normal;font-weight:normal;font-stretch:normal;font-size:60px;line-height:125%;font-family:Lato;-inkscape-font-specification:'Lato, Normal';text-align:start;letter-spacing:0px;word-spacing:0px;writing-mode:lr-tb;text-anchor:start;opacity:1;fill:#b58900;fill-opacity:0.97254902;stroke:none;stroke-width:1px;stroke-linecap:butt;stroke-linejoin:miter;stroke-opacity:1"
       id="text5059">
      <path
         d="m 204.68256,211.05488 0,4.74 -20.67,0 0,14.28 16.74,0 0,4.56 -16.74,0 0,14.67 20.7,0 -0.03,4.74 -26.49,0 0,-42.99 26.49,0 z"
         style=""
         id="path4185" />
      <path
         d="m 210.79975,254.04488 0,-30.39 3.21,0 q 1.14,0 1.41,1.11 l 0.42,3.3 q 1.98,-2.19 4.44,-3.54 2.46,-1.35 5.67,-1.35 2.49,0 4.38,0.84 1.92,0.81 3.18,2.34 1.29,1.5 1.95,3.63 0.66,2.13 0.66,4.71 l 0,19.35 -5.37,0 0,-19.35 q 0,-3.45 -1.59,-5.34 -1.56,-1.92 -4.77,-1.92 -2.4,0 -4.47,1.14 -2.04,1.14 -3.75,3.09 l 0,22.38 -5.37,0 z"
         style=""
         id="path4187" />
      <path
         d="m 253.17662,254.52488 q -3.6,0 -5.55,-2.01 -1.92,-2.01 -1.92,-5.79 l 0,-18.6 -3.66,0 q -0.48,0 -0.81,-0.27 -0.33,-0.3 -0.33,-0.9 l 0,-2.13 4.98,-0.63 1.23,-9.39 q 0.09,-0.45 0.39,-0.72 0.33,-0.3 0.84,-0.3 l 2.7,0 0,10.47 8.79,0 0,3.87 -8.79,0 0,18.24 q 0,1.92 0.93,2.85 0.93,0.93 2.4,0.93 0.84,0 1.44,-0.21 0.63,-0.24 1.08,-0.51 0.45,-0.27 0.75,-0.48 0.33,-0.24 0.57,-0.24 0.42,0 0.75,0.51 l 1.56,2.55 q -1.38,1.29 -3.33,2.04 -1.95,0.72 -4.02,0.72 z"
         style=""
         id="path4189" />
      <path
         d="m 265.40912,254.04488 0,-30.39 3.06,0 q 0.87,0 1.2,0.33 0.33,0.33 0.45,1.14 l 0.33,4.62 q 1.44,-3.12 3.54,-4.86 2.13,-1.77 5.16,-1.77 0.96,0 1.83,0.21 0.9,0.21 1.59,0.66 l -0.39,3.99 q -0.18,0.75 -0.9,0.75 -0.42,0 -1.23,-0.18 -0.81,-0.18 -1.83,-0.18 -1.44,0 -2.58,0.45 -1.14,0.42 -2.04,1.26 -0.87,0.81 -1.56,2.01 -0.69,1.2 -1.26,2.76 l 0,19.2 -5.37,0 z"
         style=""
         id="path4191" />
      <path
         d="m 284.29412,254.04488 0,0 z m 14.19,-30.87 q 2.73,0 5.04,0.93 2.34,0.9 4.02,2.64 1.71,1.71 2.67,4.26 0.96,2.52 0.96,5.76 0,1.26 -0.27,1.68 -0.27,0.42 -1.02,0.42 l -20.31,0 q 0.06,2.88 0.78,5.01 0.72,2.13 1.98,3.57 1.26,1.41 3,2.13 1.74,0.69 3.9,0.69 2.01,0 3.45,-0.45 1.47,-0.48 2.52,-1.02 1.05,-0.54 1.74,-0.99 0.72,-0.48 1.23,-0.48 0.66,0 1.02,0.51 l 1.5,1.95 q -0.99,1.2 -2.37,2.1 -1.38,0.87 -2.97,1.44 -1.56,0.57 -3.24,0.84 -1.68,0.3 -3.33,0.3 -3.15,0 -5.82,-1.05 -2.64,-1.08 -4.59,-3.12 -1.92,-2.07 -3,-5.1 -1.08,-3.03 -1.08,-6.96 0,-3.18 0.96,-5.94 0.99,-2.76 2.82,-4.77 1.83,-2.04 4.47,-3.18 2.64,-1.17 5.94,-1.17 z m 0.12,3.93 q -3.87,0 -6.09,2.25 -2.22,2.22 -2.76,6.18 l 16.62,0 q 0,-1.86 -0.54,-3.39 -0.51,-1.56 -1.53,-2.67 -0.99,-1.14 -2.43,-1.74 -1.44,-0.63 -3.27,-0.63 z m 8.73,-16.53 -6.99,7.74 q -0.42,0.45 -0.84,0.66 -0.39,0.18 -1.02,0.18 l -3.18,0 4.44,-7.26 q 0.42,-0.69 0.9,-0.99 0.51,-0.33 1.47,-0.33 l 5.22,0 z"
         style=""
         id="path4193" />
      <path
         d="m 330.12475,223.17488 q 2.73,0 5.04,0.93 2.34,0.9 4.02,2.64 1.71,1.71 2.67,4.26 0.96,2.52 0.96,5.76 0,1.26 -0.27,1.68 -0.27,0.42 -1.02,0.42 l -20.31,0 q 0.06,2.88 0.78,5.01 0.72,2.13 1.98,3.57 1.26,1.41 3,2.13 1.74,0.69 3.9,0.69 2.01,0 3.45,-0.45 1.47,-0.48 2.52,-1.02 1.05,-0.54 1.74,-0.99 0.72,-0.48 1.23,-0.48 0.66,0 1.02,0.51 l 1.5,1.95 q -0.99,1.2 -2.37,2.1 -1.38,0.87 -2.97,1.44 -1.56,0.57 -3.24,0.84 -1.68,0.3 -3.33,0.3 -3.15,0 -5.82,-1.05 -2.64,-1.08 -4.59,-3.12 -1.92,-2.07 -3,-5.1 -1.08,-3.03 -1.08,-6.96 0,-3.18 0.96,-5.94 0.99,-2.76 2.82,-4.77 1.83,-2.04 4.47,-3.18 2.64,-1.17 5.94,-1.17 z m 0.12,3.93 q -3.87,0 -6.09,2.25 -2.22,2.22 -2.76,6.18 l 16.62,0 q 0,-1.86 -0.54,-3.39 -0.51,-1.56 -1.53,-2.67 -0.99,-1.14 -2.43,-1.74 -1.44,-0.63 -3.27,-0.63 z"
         style=""
         id="path4195" />
      <path
         d="m 352.43537,235.17488 q 0,6.42 1.62,12.48 1.65,6.06 4.8,11.52 0.48,0.93 0.24,1.41 -0.24,0.51 -0.69,0.81 l -2.37,1.44 q -2.25,-3.45 -3.84,-6.84 -1.56,-3.39 -2.55,-6.81 -0.96,-3.42 -1.41,-6.87 -0.45,-3.48 -0.45,-7.14 0,-3.63 0.45,-7.11 0.45,-3.48 1.41,-6.87 0.99,-3.42 2.55,-6.81 1.59,-3.39 3.84,-6.87 l 2.37,1.47 q 0.45,0.3 0.69,0.81 0.24,0.48 -0.24,1.38 -3.15,5.46 -4.8,11.52 -1.62,6.06 -1.62,12.48 z"
         style=""
         id="path4197" />
      <path
         d="m 382.01537,228.66488 q -0.36,0.66 -1.11,0.66 -0.45,0 -1.02,-0.33 -0.57,-0.33 -1.41,-0.72 -0.81,-0.42 -1.95,-0.75 -1.14,-0.36 -2.7,-0.36 -1.35,0 -2.43,0.36 -1.08,0.33 -1.86,0.93 -0.75,0.6 -1.17,1.41 -0.39,0.78 -0.39,1.71 0,1.17 0.66,1.95 0.69,0.78 1.8,1.35 1.11,0.57 2.52,1.02 1.41,0.42 2.88,0.93 1.5,0.48 2.91,1.08 1.41,0.6 2.52,1.5 1.11,0.9 1.77,2.22 0.69,1.29 0.69,3.12 0,2.1 -0.75,3.9 -0.75,1.77 -2.22,3.09 -1.47,1.29 -3.6,2.04 -2.13,0.75 -4.92,0.75 -3.18,0 -5.76,-1.02 -2.58,-1.05 -4.38,-2.67 l 1.26,-2.04 q 0.24,-0.39 0.57,-0.6 0.33,-0.21 0.84,-0.21 0.54,0 1.14,0.42 0.6,0.42 1.44,0.93 0.87,0.51 2.1,0.93 1.23,0.42 3.06,0.42 1.56,0 2.73,-0.39 1.17,-0.42 1.95,-1.11 0.78,-0.69 1.14,-1.59 0.39,-0.9 0.39,-1.92 0,-1.26 -0.69,-2.07 -0.66,-0.84 -1.77,-1.41 -1.11,-0.6 -2.55,-1.02 -1.41,-0.45 -2.91,-0.93 -1.47,-0.48 -2.91,-1.08 -1.41,-0.63 -2.52,-1.56 -1.11,-0.93 -1.8,-2.28 -0.66,-1.38 -0.66,-3.33 0,-1.74 0.72,-3.33 0.72,-1.62 2.1,-2.82 1.38,-1.23 3.39,-1.95 2.01,-0.72 4.59,-0.72 3,0 5.37,0.96 2.4,0.93 4.14,2.58 l -1.2,1.95 z"
         style=""
         id="path4199" />
      <path
         d="m 393.48194,235.17488 q 0,-6.42 -1.65,-12.48 -1.62,-6.06 -4.77,-11.52 -0.24,-0.45 -0.3,-0.78 -0.06,-0.36 0.03,-0.6 0.09,-0.27 0.27,-0.45 0.21,-0.21 0.45,-0.36 l 2.37,-1.47 q 2.25,3.48 3.81,6.87 1.59,3.39 2.55,6.81 0.99,3.39 1.44,6.87 0.45,3.48 0.45,7.11 0,3.66 -0.45,7.14 -0.45,3.45 -1.44,6.87 -0.96,3.42 -2.55,6.81 -1.56,3.39 -3.81,6.84 l -2.37,-1.44 q -0.24,-0.15 -0.45,-0.36 -0.18,-0.18 -0.27,-0.45 -0.09,-0.24 -0.03,-0.6 0.06,-0.36 0.3,-0.81 3.15,-5.46 4.77,-11.52 1.65,-6.06 1.65,-12.48 z"
         style=""
         id="path4201" />
    </g>
    <path
       style="opacity:1;fill:none;fill-rule:evenodd;stroke:#b58900;stroke-width:4;stroke-linecap:butt;stroke-linejoin:miter;stroke-miterlimit:4;stroke-dasharray:none;stroke-opacity:1;marker-end:url(#Arrow1Mend-3-1)"
       d="m 414.73687,241.35539 152.15365,0"
       id="path4729-8-0"
       inkscape:connector-curvature="0"
       sodipodi:nodetypes="cc" />
  </g>
  <g
     inkscape:groupmode="layer"
     id="layer3"
     inkscape:label="frag2"
     style="display:inline">
    <g
       style="font-style:normal;font-variant:normal;font-weight:normal;font-stretch:normal;font-size:60px;line-height:125%;font-family:Lato;-inkscape-font-specification:'Lato, Normal';text-align:start;letter-spacing:0px;word-spacing:0px;writing-mode:lr-tb;text-anchor:start;opacity:1;fill:#b58900;fill-opacity:0.97254902;stroke:none;stroke-width:1px;stroke-linecap:butt;stroke-linejoin:miter;stroke-opacity:1"
       id="text5063">
      <path
         d="m 1025.3634,220.65487 q -0.27,0.45 -0.6,0.69 -0.3,0.21 -0.75,0.21 -0.51,0 -1.2,-0.51 -0.69,-0.51 -1.74,-1.11 -1.02,-0.63 -2.49,-1.14 -1.44,-0.51 -3.51,-0.51 -1.95,0 -3.45,0.54 -1.47,0.51 -2.49,1.41 -0.99,0.9 -1.5,2.13 -0.51,1.2 -0.51,2.61 0,1.8 0.87,3 0.9,1.17 2.34,2.01 1.47,0.84 3.3,1.47 1.86,0.6 3.78,1.26 1.95,0.66 3.78,1.5 1.86,0.81 3.3,2.07 1.47,1.26 2.34,3.09 0.9,1.83 0.9,4.5 0,2.82 -0.96,5.31 -0.96,2.46 -2.82,4.29 -1.83,1.83 -4.53,2.88 -2.67,1.05 -6.09,1.05 -4.2,0 -7.62,-1.5 -3.42,-1.53 -5.84998,-4.11 l 1.67998,-2.76 q 0.24,-0.33 0.57,-0.54 0.36,-0.24 0.78,-0.24 0.39,0 0.87,0.33 0.51,0.3 1.14,0.78 0.63,0.48 1.44,1.05 0.81,0.57 1.83,1.05 1.05,0.48 2.37,0.81 1.32,0.3 2.97,0.3 2.07,0 3.69,-0.57 1.62,-0.57 2.73,-1.59 1.14,-1.05 1.74,-2.49 0.6,-1.44 0.6,-3.21 0,-1.95 -0.9,-3.18 -0.87,-1.26 -2.31,-2.1 -1.44,-0.84 -3.3,-1.41 -1.86,-0.6 -3.78,-1.2 -1.92,-0.63 -3.78,-1.44 -1.86,-0.81 -3.3,-2.1 -1.44,-1.29 -2.34,-3.21 -0.87,-1.95 -0.87,-4.8 0,-2.28 0.87,-4.41 0.9,-2.13 2.58,-3.78 1.71,-1.65 4.17,-2.64 2.49,-0.99 5.7,-0.99 3.6,0 6.54,1.14 2.97,1.14 5.22,3.3 l -1.41,2.76 z"
         style=""
         id="path4174" />
      <path
         d="m 1047.15,226.05487 q 3.33,0 6,1.11 2.67,1.11 4.56,3.15 1.89,2.04 2.88,4.95 1.02,2.88 1.02,6.45 0,3.6 -1.02,6.48 -0.99,2.88 -2.88,4.92 -1.89,2.04 -4.56,3.15 -2.67,1.08 -6,1.08 -3.36,0 -6.06,-1.08 -2.67,-1.11 -4.56,-3.15 -1.89,-2.04 -2.91,-4.92 -0.99,-2.88 -0.99,-6.48 0,-3.57 0.99,-6.45 1.02,-2.91 2.91,-4.95 1.89,-2.04 4.56,-3.15 2.7,-1.11 6.06,-1.11 z m 0,27.12 q 4.5,0 6.72,-3 2.22,-3.03 2.22,-8.43 0,-5.43 -2.22,-8.46 -2.22,-3.03 -6.72,-3.03 -2.28,0 -3.99,0.78 -1.68,0.78 -2.82,2.25 -1.11,1.47 -1.68,3.63 -0.54,2.13 -0.54,4.83 0,5.4 2.22,8.43 2.25,3 6.81,3 z"
         style=""
         id="path4176" />
      <path
         d="m 1068.3244,256.92487 0,-30.39 3.06,0 q 0.87,0 1.2,0.33 0.33,0.33 0.45,1.14 l 0.33,4.62 q 1.44,-3.12 3.54,-4.86 2.13,-1.77 5.16,-1.77 0.96,0 1.83,0.21 0.9,0.21 1.59,0.66 l -0.39,3.99 q -0.18,0.75 -0.9,0.75 -0.42,0 -1.23,-0.18 -0.81,-0.18 -1.83,-0.18 -1.44,0 -2.58,0.45 -1.14,0.42 -2.04,1.26 -0.87,0.81 -1.56,2.01 -0.69,1.2 -1.26,2.76 l 0,19.2 -5.37,0 z"
         style=""
         id="path4178" />
      <path
         d="m 1087.1812,256.92487 0,0 z m 12.27,0.48 q -3.6,0 -5.55,-2.01 -1.92,-2.01 -1.92,-5.79 l 0,-18.6 -3.66,0 q -0.48,0 -0.81,-0.27 -0.33,-0.3 -0.33,-0.9 l 0,-2.13 4.98,-0.63 1.23,-9.39 q 0.09,-0.45 0.39,-0.72 0.33,-0.3 0.84,-0.3 l 2.7,0 0,10.47 21,0 0,29.79 -5.34,0 0,-25.92 -15.66,0 0,18.24 q 0,1.92 0.93,2.85 0.93,0.93 2.4,0.93 0.84,0 1.44,-0.21 0.63,-0.24 1.08,-0.51 0.45,-0.27 0.75,-0.48 0.33,-0.24 0.57,-0.24 0.42,0 0.75,0.51 l 1.56,2.55 q -1.38,1.29 -3.33,2.04 -1.95,0.72 -4.02,0.72 z m 20.19,-40.62 q 0,0.78 -0.33,1.47 -0.3,0.66 -0.84,1.17 -0.51,0.51 -1.2,0.81 -0.69,0.3 -1.47,0.3 -0.78,0 -1.47,-0.3 -0.66,-0.3 -1.17,-0.81 -0.51,-0.51 -0.81,-1.17 -0.3,-0.69 -0.3,-1.47 0,-0.78 0.3,-1.47 0.3,-0.72 0.81,-1.23 0.51,-0.54 1.17,-0.84 0.69,-0.3 1.47,-0.3 0.78,0 1.47,0.3 0.69,0.3 1.2,0.84 0.54,0.51 0.84,1.23 0.33,0.69 0.33,1.47 z"
         style=""
         id="path4180" />
      <path
         d="m 1139.4853,226.05487 q 2.73,0 5.04,0.93 2.34,0.9 4.02,2.64 1.71,1.71 2.67,4.26 0.96,2.52 0.96,5.76 0,1.26 -0.27,1.68 -0.27,0.42 -1.02,0.42 l -20.31,0 q 0.06,2.88 0.78,5.01 0.72,2.13 1.98,3.57 1.26,1.41 3,2.13 1.74,0.69 3.9,0.69 2.01,0 3.45,-0.45 1.47,-0.48 2.52,-1.02 1.05,-0.54 1.74,-0.99 0.72,-0.48 1.23,-0.48 0.66,0 1.02,0.51 l 1.5,1.95 q -0.99,1.2 -2.37,2.1 -1.38,0.87 -2.97,1.44 -1.56,0.57 -3.24,0.84 -1.68,0.3 -3.33,0.3 -3.15,0 -5.82,-1.05 -2.64,-1.08 -4.59,-3.12 -1.92,-2.07 -3,-5.1 -1.08,-3.03 -1.08,-6.96 0,-3.18 0.96,-5.94 0.99,-2.76 2.82,-4.77 1.83,-2.04 4.47,-3.18 2.64,-1.17 5.94,-1.17 z m 0.12,3.93 q -3.87,0 -6.09,2.25 -2.22,2.22 -2.76,6.18 l 16.62,0 q 0,-1.86 -0.54,-3.39 -0.51,-1.56 -1.53,-2.67 -0.99,-1.14 -2.43,-1.74 -1.44,-0.63 -3.27,-0.63 z"
         style=""
         id="path4182" />
    </g>
    <path
       style="opacity:1;fill:none;fill-rule:evenodd;stroke:#b58900;stroke-width:4;stroke-linecap:butt;stroke-linejoin:miter;stroke-miterlimit:4;stroke-dasharray:none;stroke-opacity:1;marker-end:url(#Arrow1Mend-3)"
       d="m 828.48132,241.17487 152.15368,0"
       id="path4729-8"
       inkscape:connector-curvature="0"
       sodipodi:nodetypes="cc" />
  </g>
  <g
     inkscape:groupmode="layer"
     id="layer6"
     inkscape:label="frag5"
     style="display:inline">
    <path
       style="fill:none;fill-opacity:1;fill-rule:evenodd;stroke:#002b36;stroke-width:4;stroke-linecap:butt;stroke-linejoin:miter;stroke-miterlimit:4;stroke-dasharray:none;stroke-opacity:1;marker-end:url(#Arrow1Mend)"
       d="m 710.96446,313.5987 45.75318,33.00925 -37.1933,61.35777 64.00949,9.33051 -96.21061,55.82769"
       id="path4203"
       inkscape:connector-curvature="0"
       sodipodi:nodetypes="ccccc" />
  </g>
  <g
     inkscape:groupmode="layer"
     id="layer8"
     inkscape:label="frag6"
     style="display:inline">
    <path
       inkscape:connector-curvature="0"
       style="display:inline;fill:#ea190e;stroke:#ff0000;stroke-width:0.02286104;stroke-linecap:round;stroke-linejoin:round"
       d="m 748.07906,354.73484 a 35.507437,35.507437 0 0 0 -35.50779,35.50778 35.507437,35.507437 0 0 0 35.50779,35.50779 35.507437,35.507437 0 0 0 35.50628,-35.50779 35.507437,35.507437 0 0 0 -35.50628,-35.50778 z m -0.35484,10.57144 c 5.9585,-0.0846 11.94698,1.9565 16.74501,6.1405 9.59607,8.36812 11.34787,22.62016 4.06409,33.06301 l -0.69614,-0.60743 -36.67604,-31.98347 c 4.67731,-4.31858 10.60458,-6.52803 16.56308,-6.61261 z m -20.08439,10.64513 36.63996,32.02707 0.69464,0.60743 c -9.36487,8.62616 -23.72352,8.81392 -33.3096,0.43452 -9.58609,-8.37939 -11.32123,-22.63472 -4.025,-33.06902 z"
       id="circle4197" />
  </g>
</svg>
