<?xml version="1.0" encoding="UTF-8" standalone="no"?>
<!-- Created with Inkscape (http://www.inkscape.org/) -->

<svg
   xmlns:dc="http://purl.org/dc/elements/1.1/"
   xmlns:cc="http://creativecommons.org/ns#"
   xmlns:rdf="http://www.w3.org/1999/02/22-rdf-syntax-ns#"
   xmlns:svg="http://www.w3.org/2000/svg"
   xmlns="http://www.w3.org/2000/svg"
   xmlns:sodipodi="http://sodipodi.sourceforge.net/DTD/sodipodi-0.dtd"
   xmlns:inkscape="http://www.inkscape.org/namespaces/inkscape"
   width="1400"
   height="600"
   id="svg10762"
   version="1.1"
   inkscape:version="0.91 r13725"
   viewBox="0 0 1400 600"
   sodipodi:docname="semantique.svg">
  <defs
     id="defs10764">
    <marker
       inkscape:stockid="Arrow1Mstart"
       orient="auto"
       refY="0.0"
       refX="0.0"
       id="marker7478"
       style="overflow:visible"
       inkscape:isstock="true">
      <path
         id="path7480"
         d="M 0.0,0.0 L 5.0,-5.0 L -12.5,0.0 L 5.0,5.0 L 0.0,0.0 z "
         style="fill-rule:evenodd;stroke:#b58900;stroke-width:1pt;stroke-opacity:1;fill:#b58900;fill-opacity:1"
         transform="scale(0.4) translate(10,0)" />
    </marker>
    <marker
       inkscape:isstock="true"
       style="overflow:visible"
       id="marker7395"
       refX="0.0"
       refY="0.0"
       orient="auto"
       inkscape:stockid="Arrow1Mstart"
       inkscape:collect="always">
      <path
         transform="scale(0.4) translate(10,0)"
         style="fill-rule:evenodd;stroke:#b58900;stroke-width:1pt;stroke-opacity:1;fill:#b58900;fill-opacity:1"
         d="M 0.0,0.0 L 5.0,-5.0 L -12.5,0.0 L 5.0,5.0 L 0.0,0.0 z "
         id="path7397" />
    </marker>
    <marker
       inkscape:stockid="Arrow1Sstart"
       orient="auto"
       refY="0.0"
       refX="0.0"
       id="Arrow1Sstart"
       style="overflow:visible"
       inkscape:isstock="true">
      <path
         id="path4747"
         d="M 0.0,0.0 L 5.0,-5.0 L -12.5,0.0 L 5.0,5.0 L 0.0,0.0 z "
         style="fill-rule:evenodd;stroke:#000000;stroke-width:1pt;stroke-opacity:1;fill:#000000;fill-opacity:1"
         transform="scale(0.2) translate(6,0)" />
    </marker>
    <marker
       inkscape:isstock="true"
       style="overflow:visible"
       id="marker13456"
       refX="0"
       refY="0"
       orient="auto"
       inkscape:stockid="Arrow1Mend">
      <path
         transform="matrix(-0.4,0,0,-0.4,-4,0)"
         style="fill:#000000;fill-opacity:1;fill-rule:evenodd;stroke:#000000;stroke-width:1pt;stroke-opacity:1"
         d="M 0,0 5,-5 -12.5,0 5,5 0,0 Z"
         id="path13458"
         inkscape:connector-curvature="0" />
    </marker>
    <marker
       inkscape:stockid="Arrow1Mend"
       orient="auto"
       refY="0"
       refX="0"
       id="Arrow1Mend"
       style="overflow:visible"
       inkscape:isstock="true"
       inkscape:collect="always">
      <path
         id="path4330"
         d="M 0,0 5,-5 -12.5,0 5,5 0,0 Z"
         style="fill:#002b36;fill-opacity:1;fill-rule:evenodd;stroke:#002b36;stroke-width:1pt;stroke-opacity:1"
         transform="matrix(-0.4,0,0,-0.4,-4,0)"
         inkscape:connector-curvature="0" />
    </marker>
    <marker
       inkscape:stockid="Arrow1Mend"
       orient="auto"
       refY="0"
       refX="0"
       id="Arrow1Mend-2"
       style="overflow:visible"
       inkscape:isstock="true">
      <path
         inkscape:connector-curvature="0"
         id="path4330-6"
         d="M 0,0 5,-5 -12.5,0 5,5 0,0 Z"
         style="fill:#073642;fill-opacity:1;fill-rule:evenodd;stroke:#073642;stroke-width:1pt;stroke-opacity:1"
         transform="matrix(-0.4,0,0,-0.4,-4,0)" />
    </marker>
    <marker
       inkscape:stockid="Arrow1Mend"
       orient="auto"
       refY="0"
       refX="0"
       id="Arrow1Mend-5"
       style="overflow:visible"
       inkscape:isstock="true">
      <path
         inkscape:connector-curvature="0"
         id="path4330-2"
         d="M 0,0 5,-5 -12.5,0 5,5 0,0 Z"
         style="fill:#586e75;fill-opacity:1;fill-rule:evenodd;stroke:#586e75;stroke-width:1pt;stroke-opacity:1"
         transform="matrix(-0.4,0,0,-0.4,-4,0)" />
    </marker>
    <marker
       inkscape:stockid="Arrow1Mend"
       orient="auto"
       refY="0"
       refX="0"
       id="Arrow1Mend-5-2"
       style="overflow:visible"
       inkscape:isstock="true">
      <path
         inkscape:connector-curvature="0"
         id="path4330-2-9"
         d="M 0,0 5,-5 -12.5,0 5,5 0,0 Z"
         style="fill:#000000;fill-opacity:1;fill-rule:evenodd;stroke:#000000;stroke-width:1pt;stroke-opacity:1"
         transform="matrix(-0.4,0,0,-0.4,-4,0)" />
    </marker>
    <marker
       inkscape:stockid="Arrow1Mend"
       orient="auto"
       refY="0"
       refX="0"
       id="Arrow1Mend-5-2-0"
       style="overflow:visible"
       inkscape:isstock="true">
      <path
         inkscape:connector-curvature="0"
         id="path4330-2-9-3"
         d="M 0,0 5,-5 -12.5,0 5,5 0,0 Z"
         style="fill:#000000;fill-opacity:1;fill-rule:evenodd;stroke:#000000;stroke-width:1pt;stroke-opacity:1"
         transform="matrix(-0.4,0,0,-0.4,-4,0)" />
    </marker>
    <marker
       inkscape:isstock="true"
       style="overflow:visible"
       id="marker7395-6"
       refX="0"
       refY="0"
       orient="auto"
       inkscape:stockid="Arrow1Mstart">
      <path
         inkscape:connector-curvature="0"
         transform="matrix(0.4,0,0,0.4,4,0)"
         style="fill:#b58900;fill-opacity:1;fill-rule:evenodd;stroke:#b58900;stroke-width:1pt;stroke-opacity:1"
         d="M 0,0 5,-5 -12.5,0 5,5 0,0 Z"
         id="path7397-7" />
    </marker>
    <marker
       inkscape:isstock="true"
       style="overflow:visible"
       id="marker7395-6-5"
       refX="0"
       refY="0"
       orient="auto"
       inkscape:stockid="Arrow1Mstart">
      <path
         inkscape:connector-curvature="0"
         transform="matrix(0.4,0,0,0.4,4,0)"
         style="fill:#b58900;fill-opacity:1;fill-rule:evenodd;stroke:#b58900;stroke-width:1pt;stroke-opacity:1"
         d="M 0,0 5,-5 -12.5,0 5,5 0,0 Z"
         id="path7397-7-3" />
    </marker>
  </defs>
  <sodipodi:namedview
     id="base"
     pagecolor="#ffffff"
     bordercolor="#666666"
     borderopacity="1.0"
     inkscape:pageopacity="0.0"
     inkscape:pageshadow="2"
     inkscape:zoom="0.59999997"
     inkscape:cx="592.90075"
     inkscape:cy="405.38407"
     inkscape:current-layer="layer7"
     inkscape:document-units="px"
     showgrid="false"
     inkscape:window-width="1600"
     inkscape:window-height="874"
     inkscape:window-x="0"
     inkscape:window-y="0"
     inkscape:window-maximized="1" />
  <metadata
     id="metadata10767">
    <rdf:RDF>
      <cc:Work
         rdf:about="">
        <dc:format>image/svg+xml</dc:format>
        <dc:type
           rdf:resource="http://purl.org/dc/dcmitype/StillImage" />
        <dc:title></dc:title>
      </cc:Work>
    </rdf:RDF>
  </metadata>
  <g
     id="layer1"
     inkscape:label="base"
     inkscape:groupmode="layer"
     style="display:inline">
    <rect
       style="display:inline;opacity:0.93000034;fill:none;fill-opacity:1;fill-rule:nonzero;stroke:#859900;stroke-width:4;stroke-linecap:round;stroke-linejoin:round;stroke-miterlimit:4;stroke-dasharray:none;stroke-dashoffset:0;stroke-opacity:1"
       id="rect11329"
       width="987.51843"
       height="89.18512"
       x="206.24078"
       y="498.74078" />
    <g
       style="display:inline;font-style:normal;font-variant:normal;font-weight:normal;font-stretch:normal;font-size:45px;line-height:125%;font-family:Lato;-inkscape-font-specification:'Lato, Normal';text-align:start;letter-spacing:0px;word-spacing:0px;writing-mode:lr-tb;text-anchor:start;fill:#859900;fill-opacity:1;stroke:none;stroke-width:1px;stroke-linecap:butt;stroke-linejoin:miter;stroke-opacity:1"
       id="text11335">
      <path
         d="m 443.81358,559.72461 -3.375,0 q -0.585,0 -0.945,-0.2925 -0.36,-0.2925 -0.54,-0.7425 l -3.015,-7.785 -14.4675,0 -3.015,7.785 q -0.135,0.405 -0.5175,0.72 -0.3825,0.315 -0.945,0.315 l -3.375,0 12.8925,-32.2425 4.41,0 12.8925,32.2425 z m -21.1275,-11.97 12.0375,0 -5.0625,-13.1175 q -0.2475,-0.585 -0.495,-1.35 -0.225,-0.765 -0.4725,-1.6425 -0.225,0.8775 -0.4725,1.665 -0.225,0.765 -0.4725,1.35 l -5.0625,13.095 z"
         style=""
         id="path4262" />
      <path
         d="m 447.15413,559.72461 0,-22.7925 2.295,0 q 0.6525,0 0.9,0.2475 0.2475,0.2475 0.3375,0.855 l 0.2475,3.465 q 1.08,-2.34 2.655,-3.645 1.5975,-1.3275 3.87,-1.3275 0.72,0 1.3725,0.1575 0.675,0.1575 1.1925,0.495 l -0.2925,2.9925 q -0.135,0.5625 -0.675,0.5625 -0.315,0 -0.9225,-0.135 -0.6075,-0.135 -1.3725,-0.135 -1.08,0 -1.935,0.3375 -0.855,0.315 -1.53,0.945 -0.6525,0.6075 -1.17,1.5075 -0.5175,0.9 -0.945,2.07 l 0,14.4 -4.0275,0 z"
         style=""
         id="path4264" />
      <path
         d="m 478.48538,540.98211 q -0.18,0.2475 -0.36,0.3825 -0.18,0.135 -0.495,0.135 -0.3375,0 -0.7425,-0.27 -0.405,-0.2925 -1.0125,-0.63 -0.585,-0.3375 -1.4625,-0.6075 -0.855,-0.2925 -2.115,-0.2925 -1.6875,0 -2.97,0.6075 -1.2825,0.585 -2.16,1.71 -0.855,1.125 -1.305,2.7225 -0.4275,1.5975 -0.4275,3.5775 0,2.07 0.4725,3.69 0.4725,1.5975 1.3275,2.7 0.8775,1.08 2.0925,1.665 1.2375,0.5625 2.7675,0.5625 1.4625,0 2.4075,-0.3375 0.945,-0.36 1.5525,-0.7875 0.63,-0.4275 1.035,-0.765 0.4275,-0.36 0.8325,-0.36 0.495,0 0.765,0.3825 l 1.125,1.4625 q -0.7425,0.9225 -1.6875,1.575 -0.945,0.6525 -2.0475,1.1025 -1.08,0.4275 -2.2725,0.63 -1.1925,0.2025 -2.43,0.2025 -2.1375,0 -3.9825,-0.7875 -1.8225,-0.7875 -3.1725,-2.2725 -1.35,-1.5075 -2.115,-3.69 -0.765,-2.1825 -0.765,-4.9725 0,-2.5425 0.6975,-4.7025 0.72,-2.16 2.07,-3.7125 1.3725,-1.575 3.3525,-2.4525 2.0025,-0.8775 4.59,-0.8775 2.4075,0 4.23,0.7875 1.845,0.765 3.2625,2.1825 l -1.0575,1.44 z"
         style=""
         id="path4266" />
      <path
         d="m 484.06819,559.72461 0,-33.1425 4.0275,0 0,13.41 q 1.4625,-1.5525 3.24,-2.475 1.7775,-0.945 4.095,-0.945 1.8675,0 3.285,0.63 1.44,0.6075 2.385,1.755 0.9675,1.125 1.4625,2.7225 0.495,1.5975 0.495,3.5325 l 0,14.5125 -4.0275,0 0,-14.5125 q 0,-2.5875 -1.1925,-4.005 -1.17,-1.44 -3.5775,-1.44 -1.8,0 -3.3525,0.855 -1.53,0.855 -2.8125,2.3175 l 0,16.785 -4.0275,0 z"
         style=""
         id="path4268" />
      <path
         d="m 513.43491,536.93211 0,22.7925 -4.005,0 0,-22.7925 4.005,0 z m 0.855,-7.155 q 0,0.585 -0.2475,1.1025 -0.225,0.495 -0.63,0.9 -0.3825,0.3825 -0.9225,0.6075 -0.5175,0.225 -1.1025,0.225 -0.585,0 -1.1025,-0.225 -0.495,-0.225 -0.8775,-0.6075 -0.3825,-0.405 -0.6075,-0.9 -0.225,-0.5175 -0.225,-1.1025 0,-0.585 0.225,-1.1025 0.225,-0.54 0.6075,-0.9225 0.3825,-0.405 0.8775,-0.63 0.5175,-0.225 1.1025,-0.225 0.585,0 1.1025,0.225 0.54,0.225 0.9225,0.63 0.405,0.3825 0.63,0.9225 0.2475,0.5175 0.2475,1.1025 z"
         style=""
         id="path4270" />
      <path
         d="m 527.01296,560.08461 q -2.7,0 -4.1625,-1.5075 -1.44,-1.5075 -1.44,-4.3425 l 0,-13.95 -2.745,0 q -0.36,0 -0.6075,-0.2025 -0.2475,-0.225 -0.2475,-0.675 l 0,-1.5975 3.735,-0.4725 0.9225,-7.0425 q 0.0675,-0.3375 0.2925,-0.54 0.2475,-0.225 0.63,-0.225 l 2.025,0 0,7.8525 6.5925,0 0,2.9025 -6.5925,0 0,13.68 q 0,1.44 0.6975,2.1375 0.6975,0.6975 1.8,0.6975 0.63,0 1.08,-0.1575 0.4725,-0.18 0.81,-0.3825 0.3375,-0.2025 0.5625,-0.36 0.2475,-0.18 0.4275,-0.18 0.315,0 0.5625,0.3825 l 1.17,1.9125 q -1.035,0.9675 -2.4975,1.53 -1.4625,0.54 -3.015,0.54 z"
         style=""
         id="path4272" />
      <path
         d="m 545.52483,536.57211 q 2.0475,0 3.78,0.6975 1.755,0.675 3.015,1.98 1.2825,1.2825 2.0025,3.195 0.72,1.89 0.72,4.32 0,0.945 -0.2025,1.26 -0.2025,0.315 -0.765,0.315 l -15.2325,0 q 0.045,2.16 0.585,3.7575 0.54,1.5975 1.485,2.6775 0.945,1.0575 2.25,1.5975 1.305,0.5175 2.925,0.5175 1.5075,0 2.5875,-0.3375 1.1025,-0.36 1.89,-0.765 0.7875,-0.405 1.305,-0.7425 0.54,-0.36 0.9225,-0.36 0.495,0 0.765,0.3825 l 1.125,1.4625 q -0.7425,0.9 -1.7775,1.575 -1.035,0.6525 -2.2275,1.08 -1.17,0.4275 -2.43,0.63 -1.26,0.225 -2.4975,0.225 -2.3625,0 -4.365,-0.7875 -1.98,-0.81 -3.4425,-2.34 -1.44,-1.5525 -2.25,-3.825 -0.81,-2.2725 -0.81,-5.22 0,-2.385 0.72,-4.455 0.7425,-2.07 2.115,-3.5775 1.3725,-1.53 3.3525,-2.385 1.98,-0.8775 4.455,-0.8775 z m 0.09,2.9475 q -2.9025,0 -4.5675,1.6875 -1.665,1.665 -2.07,4.635 l 12.465,0 q 0,-1.395 -0.405,-2.5425 -0.3825,-1.17 -1.1475,-2.0025 -0.7425,-0.855 -1.8225,-1.305 -1.08,-0.4725 -2.4525,-0.4725 z"
         style=""
         id="path4274" />
      <path
         d="m 575.7803,540.98211 q -0.18,0.2475 -0.36,0.3825 -0.18,0.135 -0.495,0.135 -0.3375,0 -0.7425,-0.27 -0.405,-0.2925 -1.0125,-0.63 -0.585,-0.3375 -1.4625,-0.6075 -0.855,-0.2925 -2.115,-0.2925 -1.6875,0 -2.97,0.6075 -1.2825,0.585 -2.16,1.71 -0.855,1.125 -1.305,2.7225 -0.4275,1.5975 -0.4275,3.5775 0,2.07 0.4725,3.69 0.4725,1.5975 1.3275,2.7 0.8775,1.08 2.0925,1.665 1.2375,0.5625 2.7675,0.5625 1.4625,0 2.4075,-0.3375 0.945,-0.36 1.5525,-0.7875 0.63,-0.4275 1.035,-0.765 0.4275,-0.36 0.8325,-0.36 0.495,0 0.765,0.3825 l 1.125,1.4625 q -0.7425,0.9225 -1.6875,1.575 -0.945,0.6525 -2.0475,1.1025 -1.08,0.4275 -2.2725,0.63 -1.1925,0.2025 -2.43,0.2025 -2.1375,0 -3.9825,-0.7875 -1.8225,-0.7875 -3.1725,-2.2725 -1.35,-1.5075 -2.115,-3.69 -0.765,-2.1825 -0.765,-4.9725 0,-2.5425 0.6975,-4.7025 0.72,-2.16 2.07,-3.7125 1.3725,-1.575 3.3525,-2.4525 2.0025,-0.8775 4.59,-0.8775 2.4075,0 4.23,0.7875 1.845,0.765 3.2625,2.1825 l -1.0575,1.44 z"
         style=""
         id="path4276" />
      <path
         d="m 588.36061,560.08461 q -2.7,0 -4.1625,-1.5075 -1.44,-1.5075 -1.44,-4.3425 l 0,-13.95 -2.745,0 q -0.36,0 -0.6075,-0.2025 -0.2475,-0.225 -0.2475,-0.675 l 0,-1.5975 3.735,-0.4725 0.9225,-7.0425 q 0.0675,-0.3375 0.2925,-0.54 0.2475,-0.225 0.63,-0.225 l 2.025,0 0,7.8525 6.5925,0 0,2.9025 -6.5925,0 0,13.68 q 0,1.44 0.6975,2.1375 0.6975,0.6975 1.8,0.6975 0.63,0 1.08,-0.1575 0.4725,-0.18 0.81,-0.3825 0.3375,-0.2025 0.5625,-0.36 0.2475,-0.18 0.4275,-0.18 0.315,0 0.5625,0.3825 l 1.17,1.9125 q -1.035,0.9675 -2.4975,1.53 -1.4625,0.54 -3.015,0.54 z"
         style=""
         id="path4278" />
      <path
         d="m 601.31499,536.93211 0,14.535 q 0,2.5875 1.17,4.005 1.1925,1.4175 3.6225,1.4175 1.755,0 3.3075,-0.8325 1.5525,-0.8325 2.8575,-2.3175 l 0,-16.8075 4.005,0 0,22.7925 -2.385,0 q -0.855,0 -1.08,-0.8325 l -0.315,-2.4525 q -1.485,1.6425 -3.33,2.655 -1.845,0.99 -4.23,0.99 -1.8675,0 -3.3075,-0.6075 -1.4175,-0.63 -2.385,-1.755 -0.9675,-1.125 -1.4625,-2.7225 -0.4725,-1.5975 -0.4725,-3.5325 l 0,-14.535 4.005,0 z"
         style=""
         id="path4280" />
      <path
         d="m 622.58382,559.72461 0,-22.7925 2.295,0 q 0.6525,0 0.9,0.2475 0.2475,0.2475 0.3375,0.855 l 0.2475,3.465 q 1.08,-2.34 2.655,-3.645 1.5975,-1.3275 3.87,-1.3275 0.72,0 1.3725,0.1575 0.675,0.1575 1.1925,0.495 l -0.2925,2.9925 q -0.135,0.5625 -0.675,0.5625 -0.315,0 -0.9225,-0.135 -0.6075,-0.135 -1.3725,-0.135 -1.08,0 -1.935,0.3375 -0.855,0.315 -1.53,0.945 -0.6525,0.6075 -1.17,1.5075 -0.5175,0.9 -0.945,2.07 l 0,14.4 -4.0275,0 z"
         style=""
         id="path4282" />
      <path
         d="m 647.39007,536.57211 q 2.0475,0 3.78,0.6975 1.755,0.675 3.015,1.98 1.2825,1.2825 2.0025,3.195 0.72,1.89 0.72,4.32 0,0.945 -0.2025,1.26 -0.2025,0.315 -0.765,0.315 l -15.2325,0 q 0.045,2.16 0.585,3.7575 0.54,1.5975 1.485,2.6775 0.945,1.0575 2.25,1.5975 1.305,0.5175 2.925,0.5175 1.5075,0 2.5875,-0.3375 1.1025,-0.36 1.89,-0.765 0.7875,-0.405 1.305,-0.7425 0.54,-0.36 0.9225,-0.36 0.495,0 0.765,0.3825 l 1.125,1.4625 q -0.7425,0.9 -1.7775,1.575 -1.035,0.6525 -2.2275,1.08 -1.17,0.4275 -2.43,0.63 -1.26,0.225 -2.4975,0.225 -2.3625,0 -4.365,-0.7875 -1.98,-0.81 -3.4425,-2.34 -1.44,-1.5525 -2.25,-3.825 -0.81,-2.2725 -0.81,-5.22 0,-2.385 0.72,-4.455 0.7425,-2.07 2.115,-3.5775 1.3725,-1.53 3.3525,-2.385 1.98,-0.8775 4.455,-0.8775 z m 0.09,2.9475 q -2.9025,0 -4.5675,1.6875 -1.665,1.665 -2.07,4.635 l 12.465,0 q 0,-1.395 -0.405,-2.5425 -0.3825,-1.17 -1.1475,-2.0025 -0.7425,-0.855 -1.8225,-1.305 -1.08,-0.4725 -2.4525,-0.4725 z"
         style=""
         id="path4284" />
      <path
         d="m 672.37421,556.82211 0,0 z m 0,-8.7525 0,-0.5175 5.6025,-8.7525 1.305,0.63 q 0.5175,0.2475 0.6075,0.72 0.1125,0.45 -0.2025,0.9675 l -3.555,5.8725 q -0.315,0.54 -0.63,0.8325 0.3375,0.315 0.63,0.81 l 3.555,5.8725 q 0.315,0.5175 0.2025,0.99 -0.09,0.45 -0.6075,0.6975 l -1.305,0.63 -5.6025,-8.7525 z m 6.66,0 0,-0.5175 5.6025,-8.7525 1.305,0.63 q 0.5175,0.2475 0.6075,0.72 0.1125,0.45 -0.2025,0.9675 l -3.555,5.8725 q -0.315,0.54 -0.63,0.8325 0.3375,0.315 0.63,0.81 l 3.555,5.8725 q 0.315,0.5175 0.2025,0.99 -0.09,0.45 -0.6075,0.6975 l -1.305,0.63 -5.6025,-8.7525 z"
         style=""
         id="path4286" />
      <path
         d="m 688.101,527.48211 3.4875,0 q 0.585,0 0.945,0.2925 0.36,0.2925 0.54,0.7425 l 9.09,22.7475 q 0.2925,0.765 0.5625,1.665 0.27,0.9 0.5175,1.8675 0.2025,-0.9675 0.45,-1.8675 0.27,-0.9 0.5625,-1.665 l 9.0675,-22.7475 q 0.135,-0.3825 0.5175,-0.6975 0.405,-0.3375 0.9675,-0.3375 l 3.4875,0 -13.14,32.2425 -3.915,0 -13.14,-32.2425 z"
         style=""
         id="path4288" />
      <path
         d="m 727.90421,536.57211 q 2.4975,0 4.5,0.8325 2.0025,0.8325 3.42,2.3625 1.4175,1.53 2.16,3.7125 0.765,2.16 0.765,4.8375 0,2.7 -0.765,4.86 -0.7425,2.16 -2.16,3.69 -1.4175,1.53 -3.42,2.3625 -2.0025,0.81 -4.5,0.81 -2.52,0 -4.545,-0.81 -2.0025,-0.8325 -3.42,-2.3625 -1.4175,-1.53 -2.1825,-3.69 -0.7425,-2.16 -0.7425,-4.86 0,-2.6775 0.7425,-4.8375 0.765,-2.1825 2.1825,-3.7125 1.4175,-1.53 3.42,-2.3625 2.025,-0.8325 4.545,-0.8325 z m 0,20.34 q 3.375,0 5.04,-2.25 1.665,-2.2725 1.665,-6.3225 0,-4.0725 -1.665,-6.345 -1.665,-2.2725 -5.04,-2.2725 -1.71,0 -2.9925,0.585 -1.26,0.585 -2.115,1.6875 -0.8325,1.1025 -1.26,2.7225 -0.405,1.5975 -0.405,3.6225 0,4.05 1.665,6.3225 1.6875,2.25 5.1075,2.25 z"
         style=""
         id="path4290" />
      <path
         d="m 743.78499,559.72461 0,-22.7925 2.4075,0 q 0.855,0 1.0575,0.8325 l 0.315,2.475 q 1.485,-1.6425 3.33,-2.655 1.845,-1.0125 4.2525,-1.0125 1.8675,0 3.285,0.63 1.44,0.6075 2.385,1.755 0.9675,1.125 1.4625,2.7225 0.495,1.5975 0.495,3.5325 l 0,14.5125 -4.0275,0 0,-14.5125 q 0,-2.5875 -1.1925,-4.005 -1.17,-1.44 -3.5775,-1.44 -1.8,0 -3.3525,0.855 -1.53,0.855 -2.8125,2.3175 l 0,16.785 -4.0275,0 z"
         style=""
         id="path4292" />
      <path
         d="m 783.63038,527.48211 q 0.2925,0 0.495,0.045 0.2025,0.0225 0.36,0.1125 0.1575,0.0675 0.315,0.225 0.1575,0.135 0.3375,0.36 l 18.6525,24.2775 q -0.045,-0.585 -0.09,-1.125 -0.0225,-0.5625 -0.0225,-1.0575 l 0,-22.8375 3.825,0 0,32.2425 -2.1825,0 q -0.5175,0 -0.8775,-0.18 -0.3375,-0.18 -0.675,-0.6075 l -18.6525,-24.2775 q 0.045,0.5625 0.0675,1.1025 0.0225,0.54 0.0225,0.99 l 0,22.9725 -3.825,0 0,-32.2425 2.25,0 0,0 z"
         style=""
         id="path4294" />
      <path
         d="m 823.43499,536.57211 q 2.0475,0 3.78,0.6975 1.755,0.675 3.015,1.98 1.2825,1.2825 2.0025,3.195 0.72,1.89 0.72,4.32 0,0.945 -0.2025,1.26 -0.2025,0.315 -0.765,0.315 l -15.2325,0 q 0.045,2.16 0.585,3.7575 0.54,1.5975 1.485,2.6775 0.945,1.0575 2.25,1.5975 1.305,0.5175 2.925,0.5175 1.5075,0 2.5875,-0.3375 1.1025,-0.36 1.89,-0.765 0.7875,-0.405 1.305,-0.7425 0.54,-0.36 0.9225,-0.36 0.495,0 0.765,0.3825 l 1.125,1.4625 q -0.7425,0.9 -1.7775,1.575 -1.035,0.6525 -2.2275,1.08 -1.17,0.4275 -2.43,0.63 -1.26,0.225 -2.4975,0.225 -2.3625,0 -4.365,-0.7875 -1.98,-0.81 -3.4425,-2.34 -1.44,-1.5525 -2.25,-3.825 -0.81,-2.2725 -0.81,-5.22 0,-2.385 0.72,-4.455 0.7425,-2.07 2.115,-3.5775 1.3725,-1.53 3.3525,-2.385 1.98,-0.8775 4.455,-0.8775 z m 0.09,2.9475 q -2.9025,0 -4.5675,1.6875 -1.665,1.665 -2.07,4.635 l 12.465,0 q 0,-1.395 -0.405,-2.5425 -0.3825,-1.17 -1.1475,-2.0025 -0.7425,-0.855 -1.8225,-1.305 -1.08,-0.4725 -2.4525,-0.4725 z"
         style=""
         id="path4296" />
      <path
         d="m 841.60796,536.93211 0,14.535 q 0,2.5875 1.17,4.005 1.1925,1.4175 3.6225,1.4175 1.755,0 3.3075,-0.8325 1.5525,-0.8325 2.8575,-2.3175 l 0,-16.8075 4.005,0 0,22.7925 -2.385,0 q -0.855,0 -1.08,-0.8325 l -0.315,-2.4525 q -1.485,1.6425 -3.33,2.655 -1.845,0.99 -4.23,0.99 -1.8675,0 -3.3075,-0.6075 -1.4175,-0.63 -2.385,-1.755 -0.9675,-1.125 -1.4625,-2.7225 -0.4725,-1.5975 -0.4725,-3.5325 l 0,-14.535 4.005,0 z"
         style=""
         id="path4298" />
      <path
         d="m 862.87678,559.72461 0,-22.7925 2.4075,0 q 0.855,0 1.0575,0.8325 l 0.2925,2.34 q 1.26,-1.5525 2.835,-2.5425 1.575,-0.99 3.645,-0.99 2.295,0 3.7125,1.2825 1.44,1.2825 2.07,3.465 0.495,-1.2375 1.26,-2.1375 0.7875,-0.9 1.755,-1.485 0.9675,-0.585 2.0475,-0.855 1.1025,-0.27 2.2275,-0.27 1.8,0 3.195,0.585 1.4175,0.5625 2.385,1.665 0.99,1.1025 1.5075,2.7225 0.5175,1.5975 0.5175,3.6675 l 0,14.5125 -4.0275,0 0,-14.5125 q 0,-2.6775 -1.17,-4.05 -1.17,-1.395 -3.375,-1.395 -0.99,0 -1.89,0.36 -0.8775,0.3375 -1.5525,1.0125 -0.675,0.675 -1.08,1.71 -0.3825,1.0125 -0.3825,2.3625 l 0,14.5125 -4.0275,0 0,-14.5125 q 0,-2.745 -1.1025,-4.095 -1.1025,-1.35 -3.2175,-1.35 -1.485,0 -2.745,0.81 -1.26,0.7875 -2.3175,2.16 l 0,16.9875 -4.0275,0 z"
         style=""
         id="path4300" />
      <path
         d="m 914.36874,559.72461 q -0.585,0 -0.9,-0.18 -0.315,-0.2025 -0.495,-0.765 l -0.45,-2.1375 q -0.9,0.81 -1.7775,1.4625 -0.855,0.63 -1.8,1.08 -0.9225,0.4275 -2.0025,0.6525 -1.0575,0.2475 -2.3625,0.2475 -1.3275,0 -2.4975,-0.36 -1.17,-0.3825 -2.0475,-1.125 -0.855,-0.7425 -1.3725,-1.8675 -0.495,-1.1475 -0.495,-2.7 0,-1.35 0.7425,-2.5875 0.7425,-1.26 2.4075,-2.2275 1.665,-0.9675 4.3425,-1.575 2.6775,-0.63 6.57,-0.72 l 0,-1.7775 q 0,-2.655 -1.1475,-4.005 -1.1475,-1.3725 -3.3525,-1.3725 -1.485,0 -2.4975,0.3825 -0.99,0.36 -1.7325,0.8325 -0.72,0.45 -1.26,0.8325 -0.5175,0.36 -1.035,0.36 -0.405,0 -0.6975,-0.2025 -0.2925,-0.225 -0.495,-0.54 l -0.72,-1.2825 q 1.89,-1.8225 4.0725,-2.7225 2.1825,-0.9 4.8375,-0.9 1.9125,0 3.3975,0.63 1.485,0.63 2.4975,1.755 1.0125,1.125 1.53,2.7225 0.5175,1.5975 0.5175,3.51 l 0,14.58 -1.7775,0 z m -8.595,-2.4525 q 1.0575,0 1.935,-0.2025 0.8775,-0.225 1.6425,-0.6075 0.7875,-0.405 1.485,-0.9675 0.72,-0.585 1.395,-1.305 l 0,-4.725 q -2.7675,0.09 -4.725,0.45 -1.935,0.3375 -3.1725,0.9 -1.215,0.5625 -1.7775,1.3275 -0.54,0.765 -0.54,1.71 0,0.9 0.2925,1.5525 0.2925,0.6525 0.7875,1.08 0.5175,0.405 1.1925,0.6075 0.6975,0.18 1.485,0.18 z"
         style=""
         id="path4302" />
      <path
         d="m 922.20296,559.72461 0,-22.7925 2.4075,0 q 0.855,0 1.0575,0.8325 l 0.315,2.475 q 1.485,-1.6425 3.33,-2.655 1.845,-1.0125 4.2525,-1.0125 1.8675,0 3.285,0.63 1.44,0.6075 2.385,1.755 0.9675,1.125 1.4625,2.7225 0.495,1.5975 0.495,3.5325 l 0,14.5125 -4.0275,0 0,-14.5125 q 0,-2.5875 -1.1925,-4.005 -1.17,-1.44 -3.5775,-1.44 -1.8,0 -3.3525,0.855 -1.53,0.855 -2.8125,2.3175 l 0,16.785 -4.0275,0 z"
         style=""
         id="path4304" />
      <path
         d="m 947.33968,559.72461 0,-22.7925 2.4075,0 q 0.855,0 1.0575,0.8325 l 0.315,2.475 q 1.485,-1.6425 3.33,-2.655 1.845,-1.0125 4.2525,-1.0125 1.8675,0 3.285,0.63 1.44,0.6075 2.385,1.755 0.9675,1.125 1.4625,2.7225 0.495,1.5975 0.495,3.5325 l 0,14.5125 -4.0275,0 0,-14.5125 q 0,-2.5875 -1.1925,-4.005 -1.17,-1.44 -3.5775,-1.44 -1.8,0 -3.3525,0.855 -1.53,0.855 -2.8125,2.3175 l 0,16.785 -4.0275,0 z"
         style=""
         id="path4306" />
      <path
         d="m 972.09389,556.82211 0,0 z m 7.6275,-9.27 0,0.5175 -5.6025,8.7525 -1.305,-0.63 q -0.5175,-0.2475 -0.63,-0.6975 -0.09,-0.4725 0.225,-0.99 l 3.555,-5.8725 q 0.1575,-0.27 0.315,-0.4725 0.1575,-0.2025 0.315,-0.3375 -0.315,-0.2925 -0.63,-0.8325 l -3.555,-5.8725 q -0.315,-0.5175 -0.225,-0.9675 0.1125,-0.4725 0.63,-0.72 l 1.305,-0.63 5.6025,8.7525 z m 6.66,0 0,0.5175 -5.6025,8.7525 -1.305,-0.63 q -0.5175,-0.2475 -0.63,-0.6975 -0.09,-0.4725 0.225,-0.99 l 3.555,-5.8725 q 0.1575,-0.27 0.315,-0.4725 0.1575,-0.2025 0.315,-0.3375 -0.315,-0.2925 -0.63,-0.8325 l -3.555,-5.8725 q -0.315,-0.5175 -0.225,-0.9675 0.1125,-0.4725 0.63,-0.72 l 1.305,-0.63 5.6025,8.7525 z"
         style=""
         id="path4308" />
    </g>
  </g>
  <g
     inkscape:groupmode="layer"
     id="layer5"
     inkscape:label="frag0"
     style="display:inline">
    <rect
       style="display:inline;opacity:0.93000034;fill:none;fill-opacity:1;fill-rule:nonzero;stroke:#002b36;stroke-width:4;stroke-linecap:round;stroke-linejoin:round;stroke-miterlimit:4;stroke-dasharray:none;stroke-dashoffset:0;stroke-opacity:1"
       id="rect11352-5"
       width="179.99997"
       height="61.666656"
       x="586.46552"
       y="433.1734" />
    <g
       style="font-style:normal;font-variant:normal;font-weight:normal;font-stretch:normal;font-size:35px;line-height:125%;font-family:Lato;-inkscape-font-specification:'Lato, Normal';text-align:start;letter-spacing:0px;word-spacing:0px;writing-mode:lr-tb;text-anchor:start;display:inline;fill:#002b36;fill-opacity:1;stroke:none;stroke-width:1px;stroke-linecap:butt;stroke-linejoin:miter;stroke-opacity:1"
       id="text8494">
      <path
         d="m 663.9932,476.54547 -2.625,0 q -0.455,0 -0.735,-0.2275 -0.28,-0.2275 -0.42,-0.5775 l -2.345,-6.055 -11.2525,0 -2.345,6.055 q -0.105,0.315 -0.4025,0.56 -0.2975,0.245 -0.735,0.245 l -2.625,0 10.0275,-25.0775 3.43,0 10.0275,25.0775 z m -16.4325,-9.31 9.3625,0 -3.9375,-10.2025 q -0.1925,-0.455 -0.385,-1.05 -0.175,-0.595 -0.3675,-1.2775 -0.175,0.6825 -0.3675,1.295 -0.175,0.595 -0.3675,1.05 l -3.9375,10.185 z"
         id="path4311"
         inkscape:connector-curvature="0" />
      <path
         d="m 680.1539,455.38797 q -0.1575,0.2625 -0.35,0.4025 -0.175,0.1225 -0.4375,0.1225 -0.2975,0 -0.7,-0.2975 -0.4025,-0.2975 -1.015,-0.6475 -0.595,-0.3675 -1.4525,-0.665 -0.84,-0.2975 -2.0475,-0.2975 -1.1375,0 -2.0125,0.315 -0.8575,0.2975 -1.4525,0.8225 -0.5775,0.525 -0.875,1.2425 -0.2975,0.7 -0.2975,1.5225 0,1.05 0.5075,1.75 0.525,0.6825 1.365,1.1725 0.8575,0.49 1.925,0.8575 1.085,0.35 2.205,0.735 1.1375,0.385 2.205,0.875 1.085,0.4725 1.925,1.2075 0.8575,0.735 1.365,1.8025 0.525,1.0675 0.525,2.625 0,1.645 -0.56,3.0975 -0.56,1.435 -1.645,2.5025 -1.0675,1.0675 -2.6425,1.68 -1.5575,0.6125 -3.5525,0.6125 -2.45,0 -4.445,-0.875 -1.995,-0.8925 -3.4125,-2.3975 l 0.98,-1.61 q 0.14,-0.1925 0.3325,-0.315 0.21,-0.14 0.455,-0.14 0.2275,0 0.5075,0.1925 0.2975,0.175 0.665,0.455 0.3675,0.28 0.84,0.6125 0.4725,0.3325 1.0675,0.6125 0.6125,0.28 1.3825,0.4725 0.77,0.175 1.7325,0.175 1.2075,0 2.1525,-0.3325 0.945,-0.3325 1.5925,-0.9275 0.665,-0.6125 1.015,-1.4525 0.35,-0.84 0.35,-1.8725 0,-1.1375 -0.525,-1.855 -0.5075,-0.735 -1.3475,-1.225 -0.84,-0.49 -1.925,-0.8225 -1.085,-0.35 -2.205,-0.7 -1.12,-0.3675 -2.205,-0.84 -1.085,-0.4725 -1.925,-1.225 -0.84,-0.7525 -1.365,-1.8725 -0.5075,-1.1375 -0.5075,-2.8 0,-1.33 0.5075,-2.5725 0.525,-1.2425 1.505,-2.205 0.9975,-0.9625 2.4325,-1.54 1.4525,-0.5775 3.325,-0.5775 2.1,0 3.815,0.665 1.7325,0.665 3.045,1.925 l -0.8225,1.61 z"
         id="path4313"
         inkscape:connector-curvature="0" />
      <path
         d="m 698.66781,467.48047 q 0.21,0.42 0.4025,0.8925 0.1925,0.455 0.385,0.91 0.175,-0.4725 0.3675,-0.9275 0.1925,-0.4725 0.42,-0.8925 l 8.505,-15.4175 q 0.21,-0.4025 0.455,-0.49 0.2625,-0.0875 0.7175,-0.0875 l 2.5025,0 0,25.0775 -2.975,0 0,-18.4275 q 0,-0.3675 0.0175,-0.7875 0.0175,-0.42 0.0525,-0.8575 l -8.5925,15.68 q -0.4025,0.7875 -1.225,0.7875 l -0.49,0 q -0.8225,0 -1.225,-0.7875 l -8.785,-15.7325 q 0.0525,0.455 0.07,0.8925 0.035,0.4375 0.035,0.805 l 0,18.4275 -2.975,0 0,-25.0775 2.5025,0 q 0.455,0 0.7,0.0875 0.245,0.0875 0.4725,0.49 l 8.6625,15.435 0,0 z"
         id="path4315"
         inkscape:connector-curvature="0" />
    </g>
  </g>
  <g
     inkscape:groupmode="layer"
     id="layer2"
     inkscape:label="frag1"
     style="display:inline">
    <rect
       style="display:inline;opacity:0.93000034;fill:none;fill-opacity:1;fill-rule:nonzero;stroke:#002b36;stroke-width:4;stroke-linecap:round;stroke-linejoin:round;stroke-miterlimit:4;stroke-dasharray:none;stroke-dashoffset:0;stroke-opacity:1"
       id="rect11352"
       width="179.99997"
       height="61.666656"
       x="725.55005"
       y="360.06635" />
    <g
       style="font-style:normal;font-variant:normal;font-weight:normal;font-stretch:normal;font-size:35px;line-height:125%;font-family:Lato;-inkscape-font-specification:'Lato, Normal';text-align:start;letter-spacing:0px;word-spacing:0px;writing-mode:lr-tb;text-anchor:start;display:inline;fill:#002b36;fill-opacity:1;stroke:none;stroke-width:1px;stroke-linecap:butt;stroke-linejoin:miter;stroke-opacity:1"
       id="text11354">
      <path
         d="m 753.30472,378.36967 0,2.765 -12.0575,0 0,8.7675 10.3075,0 0,2.765 -10.3075,0 0,10.78 -3.395,0 0,-25.0775 15.4525,0 z"
         id="path4318"
         inkscape:connector-curvature="0" />
      <path
         d="m 780.64136,390.91717 q 0,2.8175 -0.8925,5.18 -0.8925,2.345 -2.52,4.0425 -1.6275,1.6975 -3.92,2.6425 -2.275,0.9275 -5.04,0.9275 -2.765,0 -5.04,-0.9275 -2.275,-0.945 -3.9025,-2.6425 -1.6275,-1.6975 -2.52,-4.0425 -0.8925,-2.3625 -0.8925,-5.18 0,-2.8175 0.8925,-5.1625 0.8925,-2.3625 2.52,-4.06 1.6275,-1.715 3.9025,-2.66 2.275,-0.945 5.04,-0.945 2.765,0 5.04,0.945 2.2925,0.945 3.92,2.66 1.6275,1.6975 2.52,4.06 0.8925,2.345 0.8925,5.1625 z m -3.4825,0 q 0,-2.31 -0.63,-4.1475 -0.63,-1.8375 -1.785,-3.0975 -1.155,-1.2775 -2.8,-1.96 -1.645,-0.6825 -3.675,-0.6825 -2.0125,0 -3.6575,0.6825 -1.645,0.6825 -2.8175,1.96 -1.155,1.26 -1.785,3.0975 -0.63,1.8375 -0.63,4.1475 0,2.31 0.63,4.1475 0.63,1.82 1.785,3.0975 1.1725,1.26 2.8175,1.9425 1.645,0.665 3.6575,0.665 2.03,0 3.675,-0.665 1.645,-0.6825 2.8,-1.9425 1.155,-1.2775 1.785,-3.0975 0.63,-1.8375 0.63,-4.1475 z"
         id="path4320"
         inkscape:connector-curvature="0" />
      <path
         d="m 788.8762,392.98217 0,10.465 -3.3775,0 0,-25.0775 7.0875,0 q 2.38,0 4.1125,0.49 1.7325,0.4725 2.8525,1.3825 1.1375,0.91 1.68,2.205 0.5425,1.2775 0.5425,2.87 0,1.33 -0.42,2.485 -0.42,1.155 -1.225,2.0825 -0.7875,0.91 -1.9425,1.575 -1.1375,0.6475 -2.59,0.9625 0.665,0.42 1.12,1.0675 l 7.315,9.9575 -3.01,0 q -0.9275,0 -1.365,-0.7175 l -6.51,-8.96 q -0.2975,-0.42 -0.6475,-0.595 -0.3325,-0.1925 -1.05,-0.1925 l -2.5725,0 z m 0,-2.4675 3.57,0 q 1.47,0 2.59,-0.35 1.1375,-0.3675 1.89,-1.015 0.77,-0.665 1.155,-1.575 0.385,-0.91 0.385,-2.0125 0,-2.24 -1.47,-3.3775 -1.47,-1.1375 -4.41,-1.1375 l -3.71,0 0,9.4675 z"
         id="path4322"
         inkscape:connector-curvature="0" />
      <path
         d="m 823.57925,378.36967 0,2.8525 -8.12,0 0,22.225 -3.3775,0 0,-22.225 -8.1375,0 0,-2.8525 19.635,0 z"
         id="path4324"
         inkscape:connector-curvature="0" />
      <path
         d="m 830.64378,392.98217 0,10.465 -3.3775,0 0,-25.0775 7.0875,0 q 2.38,0 4.1125,0.49 1.7325,0.4725 2.8525,1.3825 1.1375,0.91 1.68,2.205 0.5425,1.2775 0.5425,2.87 0,1.33 -0.42,2.485 -0.42,1.155 -1.225,2.0825 -0.7875,0.91 -1.9425,1.575 -1.1375,0.6475 -2.59,0.9625 0.665,0.42 1.12,1.0675 l 7.315,9.9575 -3.01,0 q -0.9275,0 -1.365,-0.7175 l -6.51,-8.96 q -0.2975,-0.42 -0.6475,-0.595 -0.3325,-0.1925 -1.05,-0.1925 l -2.5725,0 z m 0,-2.4675 3.57,0 q 1.47,0 2.59,-0.35 1.1375,-0.3675 1.89,-1.015 0.77,-0.665 1.155,-1.575 0.385,-0.91 0.385,-2.0125 0,-2.24 -1.47,-3.3775 -1.47,-1.1375 -4.41,-1.1375 l -3.71,0 0,9.4675 z"
         id="path4326"
         inkscape:connector-curvature="0" />
      <path
         d="m 869.59714,403.44717 -2.625,0 q -0.455,0 -0.735,-0.2275 -0.28,-0.2275 -0.42,-0.5775 l -2.345,-6.055 -11.2525,0 -2.345,6.055 q -0.105,0.315 -0.4025,0.56 -0.2975,0.245 -0.735,0.245 l -2.625,0 10.0275,-25.0775 3.43,0 10.0275,25.0775 z m -16.4325,-9.31 9.3625,0 -3.9375,-10.2025 q -0.1925,-0.455 -0.385,-1.05 -0.175,-0.595 -0.3675,-1.2775 -0.175,0.6825 -0.3675,1.295 -0.175,0.595 -0.3675,1.05 l -3.9375,10.185 z"
         id="path4328"
         inkscape:connector-curvature="0" />
      <path
         d="m 874.68034,378.36967 q 0.2275,0 0.385,0.035 0.1575,0.0175 0.28,0.0875 0.1225,0.0525 0.245,0.175 0.1225,0.105 0.2625,0.28 l 14.5075,18.8825 q -0.035,-0.455 -0.07,-0.875 -0.0175,-0.4375 -0.0175,-0.8225 l 0,-17.7625 2.975,0 0,25.0775 -1.6975,0 q -0.4025,0 -0.6825,-0.14 -0.2625,-0.14 -0.525,-0.4725 l -14.5075,-18.8825 q 0.035,0.4375 0.0525,0.8575 0.0175,0.42 0.0175,0.77 l 0,17.8675 -2.975,0 0,-25.0775 1.75,0 0,0 z"
         id="path4331"
         inkscape:connector-curvature="0" />
    </g>
    <path
       style="display:inline;fill:none;fill-rule:evenodd;stroke:#002b36;stroke-width:3;stroke-linecap:butt;stroke-linejoin:miter;stroke-miterlimit:4;stroke-dasharray:none;stroke-opacity:1;marker-end:url(#Arrow1Mend)"
       d="m 815.55002,498.05877 0,-71.65695"
       id="path11374"
       inkscape:connector-curvature="0"
       sodipodi:nodetypes="cc" />
  </g>
  <g
     inkscape:groupmode="layer"
     id="layer3"
     inkscape:label="frag2"
     style="display:inline">
    <rect
       style="display:inline;opacity:0.93000034;fill:none;fill-opacity:1;fill-rule:nonzero;stroke:#073642;stroke-width:4;stroke-linecap:round;stroke-linejoin:round;stroke-miterlimit:4;stroke-dasharray:none;stroke-dashoffset:0;stroke-opacity:1"
       id="rect11352-1"
       width="179.99997"
       height="61.666656"
       x="852.66669"
       y="292.16669" />
    <g
       style="font-style:normal;font-variant:normal;font-weight:normal;font-stretch:normal;font-size:35px;line-height:125%;font-family:Lato;-inkscape-font-specification:'Lato, Normal';text-align:start;letter-spacing:0px;word-spacing:0px;writing-mode:lr-tb;text-anchor:start;display:inline;fill:#073642;fill-opacity:1;stroke:none;stroke-width:1px;stroke-linecap:butt;stroke-linejoin:miter;stroke-opacity:1"
       id="text11354-0">
      <path
         d="m 951.32044,330.35876 q 0.28,0 0.49,0.2275 l 1.3475,1.4525 q -1.54,1.785 -3.745,2.7825 -2.1875,0.9975 -5.3025,0.9975 -2.695,0 -4.9,-0.9275 -2.205,-0.945 -3.7625,-2.625 -1.5575,-1.6975 -2.415,-4.06 -0.8575,-2.3625 -0.8575,-5.1975 0,-2.835 0.8925,-5.1975 0.8925,-2.3625 2.5025,-4.06 1.6275,-1.6975 3.885,-2.625 2.2575,-0.945 4.9875,-0.945 2.6775,0 4.725,0.8575 2.0475,0.8575 3.605,2.3275 l -1.12,1.5575 q -0.105,0.175 -0.28,0.2975 -0.1575,0.105 -0.4375,0.105 -0.315,0 -0.77,-0.3325 -0.455,-0.35 -1.19,-0.77 -0.735,-0.42 -1.8375,-0.7525 -1.1025,-0.35 -2.7125,-0.35 -1.9425,0 -3.5525,0.6825 -1.61,0.665 -2.7825,1.9425 -1.155,1.2775 -1.8025,3.115 -0.6475,1.8375 -0.6475,4.1475 0,2.345 0.665,4.1825 0.6825,1.8375 1.8375,3.115 1.1725,1.26 2.7475,1.925 1.5925,0.665 3.43,0.665 1.12,0 2.0125,-0.1225 0.91,-0.14 1.6625,-0.42 0.77,-0.28 1.4175,-0.7 0.665,-0.4375 1.3125,-1.0325 0.2975,-0.2625 0.595,-0.2625 z"
         id="path4334"
         inkscape:connector-curvature="0" />
    </g>
    <path
       style="display:inline;fill:none;fill-rule:evenodd;stroke:#073642;stroke-width:3;stroke-linecap:butt;stroke-linejoin:miter;stroke-miterlimit:4;stroke-dasharray:none;stroke-opacity:1;marker-end:url(#Arrow1Mend-2)"
       d="m 942.66667,497.86016 0,-139.65695"
       id="path11374-4"
       inkscape:connector-curvature="0"
       sodipodi:nodetypes="cc" />
  </g>
  <g
     inkscape:groupmode="layer"
     id="layer4"
     inkscape:label="frag3"
     style="display:inline">
    <rect
       style="display:inline;opacity:0.93000034;fill:none;fill-opacity:1;fill-rule:nonzero;stroke:#586e75;stroke-width:4;stroke-linecap:round;stroke-linejoin:round;stroke-miterlimit:4;stroke-dasharray:none;stroke-dashoffset:0;stroke-opacity:1"
       id="rect11352-1-3"
       width="179.99997"
       height="61.666656"
       x="989.33337"
       y="187.83333" />
    <g
       style="font-style:normal;font-variant:normal;font-weight:normal;font-stretch:normal;font-size:35px;line-height:125%;font-family:Lato;-inkscape-font-specification:'Lato, Normal';text-align:start;letter-spacing:0px;word-spacing:0px;writing-mode:lr-tb;text-anchor:start;display:inline;fill:#586e75;fill-opacity:1;stroke:none;stroke-width:1px;stroke-linecap:butt;stroke-linejoin:miter;stroke-opacity:1"
       id="text11354-0-7">
      <path
         d="m 1059.0407,222.4029 q 0,2.1 -0.525,3.7625 -0.5075,1.6625 -1.5225,2.8175 -0.9975,1.1375 -2.4675,1.75 -1.47,0.6125 -3.3775,0.6125 -1.7325,0 -3.535,-0.49 l 0.175,-1.995 q 0.035,-0.2975 0.21,-0.4725 0.1925,-0.1925 0.5775,-0.1925 0.315,0 0.8225,0.1575 0.525,0.1575 1.4,0.1575 1.155,0 2.065,-0.35 0.91,-0.35 1.5225,-1.085 0.6125,-0.735 0.9275,-1.8725 0.3325,-1.155 0.3325,-2.73 l 0,-16.485 3.395,0 0,16.415 z"
         id="path4337"
         inkscape:connector-curvature="0" />
      <path
         d="m 1075.0128,231.0654 q -0.455,0 -0.7,-0.14 -0.245,-0.1575 -0.385,-0.595 l -0.35,-1.6625 q -0.7,0.63 -1.3825,1.1375 -0.665,0.49 -1.4,0.84 -0.7175,0.3325 -1.5575,0.5075 -0.8225,0.1925 -1.8375,0.1925 -1.0325,0 -1.9425,-0.28 -0.91,-0.2975 -1.5925,-0.875 -0.665,-0.5775 -1.0675,-1.4525 -0.385,-0.8925 -0.385,-2.1 0,-1.05 0.5775,-2.0125 0.5775,-0.98 1.8725,-1.7325 1.295,-0.7525 3.3775,-1.225 2.0825,-0.49 5.11,-0.56 l 0,-1.3825 q 0,-2.065 -0.8925,-3.115 -0.8925,-1.0675 -2.6075,-1.0675 -1.155,0 -1.9425,0.2975 -0.77,0.28 -1.3475,0.6475 -0.56,0.35 -0.98,0.6475 -0.4025,0.28 -0.805,0.28 -0.315,0 -0.5425,-0.1575 -0.2275,-0.175 -0.385,-0.42 l -0.56,-0.9975 q 1.47,-1.4175 3.1675,-2.1175 1.6975,-0.7 3.7625,-0.7 1.4875,0 2.6425,0.49 1.155,0.49 1.9425,1.365 0.7875,0.875 1.19,2.1175 0.4025,1.2425 0.4025,2.73 l 0,11.34 -1.3825,0 z m -6.685,-1.9075 q 0.8225,0 1.505,-0.1575 0.6825,-0.175 1.2775,-0.4725 0.6125,-0.315 1.155,-0.7525 0.56,-0.455 1.085,-1.015 l 0,-3.675 q -2.1525,0.07 -3.675,0.35 -1.505,0.2625 -2.4675,0.7 -0.945,0.4375 -1.3825,1.0325 -0.42,0.595 -0.42,1.33 0,0.7 0.2275,1.2075 0.2275,0.5075 0.6125,0.84 0.4025,0.315 0.9275,0.4725 0.5425,0.14 1.155,0.14 z"
         id="path4339"
         inkscape:connector-curvature="0" />
      <path
         d="m 1078.6993,213.3379 2.5375,0 q 0.385,0 0.63,0.1925 0.245,0.1925 0.3325,0.455 l 4.4975,11.41 q 0.21,0.6475 0.3675,1.26 0.1575,0.6125 0.2975,1.225 0.14,-0.6125 0.2975,-1.225 0.1575,-0.6125 0.385,-1.26 l 4.55,-11.41 q 0.105,-0.28 0.35,-0.455 0.245,-0.1925 0.5775,-0.1925 l 2.4325,0 -7.2275,17.7275 -2.8,0 -7.2275,-17.7275 z"
         id="path4341"
         inkscape:connector-curvature="0" />
      <path
         d="m 1109.671,231.0654 q -0.455,0 -0.7,-0.14 -0.245,-0.1575 -0.385,-0.595 l -0.35,-1.6625 q -0.7,0.63 -1.3825,1.1375 -0.665,0.49 -1.4,0.84 -0.7175,0.3325 -1.5575,0.5075 -0.8225,0.1925 -1.8375,0.1925 -1.0325,0 -1.9425,-0.28 -0.91,-0.2975 -1.5925,-0.875 -0.665,-0.5775 -1.0675,-1.4525 -0.385,-0.8925 -0.385,-2.1 0,-1.05 0.5775,-2.0125 0.5775,-0.98 1.8725,-1.7325 1.295,-0.7525 3.3775,-1.225 2.0825,-0.49 5.11,-0.56 l 0,-1.3825 q 0,-2.065 -0.8925,-3.115 -0.8925,-1.0675 -2.6075,-1.0675 -1.155,0 -1.9425,0.2975 -0.77,0.28 -1.3475,0.6475 -0.56,0.35 -0.98,0.6475 -0.4025,0.28 -0.805,0.28 -0.315,0 -0.5425,-0.1575 -0.2275,-0.175 -0.385,-0.42 l -0.56,-0.9975 q 1.47,-1.4175 3.1675,-2.1175 1.6975,-0.7 3.7625,-0.7 1.4875,0 2.6425,0.49 1.155,0.49 1.9425,1.365 0.7875,0.875 1.19,2.1175 0.4025,1.2425 0.4025,2.73 l 0,11.34 -1.3825,0 z m -6.685,-1.9075 q 0.8225,0 1.505,-0.1575 0.6825,-0.175 1.2775,-0.4725 0.6125,-0.315 1.155,-0.7525 0.56,-0.455 1.085,-1.015 l 0,-3.675 q -2.1525,0.07 -3.675,0.35 -1.505,0.2625 -2.4675,0.7 -0.945,0.4375 -1.3825,1.0325 -0.42,0.595 -0.42,1.33 0,0.7 0.2275,1.2075 0.2275,0.5075 0.6125,0.84 0.4025,0.315 0.9275,0.4725 0.5425,0.14 1.155,0.14 z"
         id="path4343"
         inkscape:connector-curvature="0" />
    </g>
    <path
       style="display:inline;fill:none;fill-rule:evenodd;stroke:#586e75;stroke-width:3;stroke-linecap:butt;stroke-linejoin:miter;stroke-miterlimit:4;stroke-dasharray:none;stroke-opacity:1;marker-end:url(#Arrow1Mend-5)"
       d="m 1079.3334,497.02683 0,-243.32362"
       id="path11374-0"
       inkscape:connector-curvature="0"
       sodipodi:nodetypes="cc" />
  </g>
  <g
     inkscape:groupmode="layer"
     id="layer6"
     inkscape:label="frag4"
     style="display:inline">
    <rect
       style="display:inline;opacity:0.93000034;fill:none;fill-opacity:1;fill-rule:nonzero;stroke:#b58900;stroke-width:4;stroke-linecap:round;stroke-linejoin:round;stroke-miterlimit:4;stroke-dasharray:none;stroke-dashoffset:0;stroke-opacity:1"
       id="rect11352-1-3-9-7"
       width="179.99997"
       height="61.666656"
       x="388.52377"
       y="103.45647" />
    <g
       style="font-style:normal;font-variant:normal;font-weight:normal;font-stretch:normal;font-size:35px;line-height:125%;font-family:Lato;-inkscape-font-specification:'Lato, Normal';text-align:start;letter-spacing:0px;word-spacing:0px;writing-mode:lr-tb;text-anchor:start;display:inline;fill:#b58900;fill-opacity:1;stroke:none;stroke-width:1px;stroke-linecap:butt;stroke-linejoin:miter;stroke-opacity:1"
       id="text11354-0-7-4-8">
      <path
         d="m 452.4556,134.50854 q 0,2.8175 -0.8925,5.18 -0.8925,2.345 -2.52,4.0425 -1.6275,1.6975 -3.92,2.6425 -2.275,0.9275 -5.04,0.9275 -2.765,0 -5.04,-0.9275 -2.275,-0.945 -3.9025,-2.6425 -1.6275,-1.6975 -2.52,-4.0425 -0.8925,-2.3625 -0.8925,-5.18 0,-2.8175 0.8925,-5.1625 0.8925,-2.3625 2.52,-4.06 1.6275,-1.715 3.9025,-2.66 2.275,-0.945 5.04,-0.945 2.765,0 5.04,0.945 2.2925,0.945 3.92,2.66 1.6275,1.6975 2.52,4.06 0.8925,2.345 0.8925,5.1625 z m -3.4825,0 q 0,-2.31 -0.63,-4.1475 -0.63,-1.8375 -1.785,-3.0975 -1.155,-1.2775 -2.8,-1.96 -1.645,-0.6825 -3.675,-0.6825 -2.0125,0 -3.6575,0.6825 -1.645,0.6825 -2.8175,1.96 -1.155,1.26 -1.785,3.0975 -0.63,1.8375 -0.63,4.1475 0,2.31 0.63,4.1475 0.63,1.82 1.785,3.0975 1.1725,1.26 2.8175,1.9425 1.645,0.665 3.6575,0.665 2.03,0 3.675,-0.665 1.645,-0.6825 2.8,-1.9425 1.155,-1.2775 1.785,-3.0975 0.63,-1.8375 0.63,-4.1475 z"
         id="path4358"
         inkscape:connector-curvature="0" />
      <path
         d="m 474.91794,141.85854 q 0.28,0 0.49,0.2275 l 1.3475,1.4525 q -1.54,1.785 -3.745,2.7825 -2.1875,0.9975 -5.3025,0.9975 -2.695,0 -4.9,-0.9275 -2.205,-0.945 -3.7625,-2.625 -1.5575,-1.6975 -2.415,-4.06 -0.8575,-2.3625 -0.8575,-5.1975 0,-2.835 0.8925,-5.1975 0.8925,-2.3625 2.5025,-4.06 1.6275,-1.6975 3.885,-2.625 2.2575,-0.945 4.9875,-0.945 2.6775,0 4.725,0.8575 2.0475,0.8575 3.605,2.3275 l -1.12,1.5575 q -0.105,0.175 -0.28,0.2975 -0.1575,0.105 -0.4375,0.105 -0.315,0 -0.77,-0.3325 -0.455,-0.35 -1.19,-0.77 -0.735,-0.42 -1.8375,-0.7525 -1.1025,-0.35 -2.7125,-0.35 -1.9425,0 -3.5525,0.6825 -1.61,0.665 -2.7825,1.9425 -1.155,1.2775 -1.8025,3.115 -0.6475,1.8375 -0.6475,4.1475 0,2.345 0.665,4.1825 0.6825,1.8375 1.8375,3.115 1.1725,1.26 2.7475,1.925 1.5925,0.665 3.43,0.665 1.12,0 2.0125,-0.1225 0.91,-0.14 1.6625,-0.42 0.77,-0.28 1.4175,-0.7 0.665,-0.4375 1.3125,-1.0325 0.2975,-0.2625 0.595,-0.2625 z"
         id="path4360"
         inkscape:connector-curvature="0" />
      <path
         d="m 491.22685,147.03854 q -0.455,0 -0.7,-0.14 -0.245,-0.1575 -0.385,-0.595 l -0.35,-1.6625 q -0.7,0.63 -1.3825,1.1375 -0.665,0.49 -1.4,0.84 -0.7175,0.3325 -1.5575,0.5075 -0.8225,0.1925 -1.8375,0.1925 -1.0325,0 -1.9425,-0.28 -0.91,-0.2975 -1.5925,-0.875 -0.665,-0.5775 -1.0675,-1.4525 -0.385,-0.8925 -0.385,-2.1 0,-1.05 0.5775,-2.0125 0.5775,-0.98 1.8725,-1.7325 1.295,-0.7525 3.3775,-1.225 2.0825,-0.49 5.11,-0.56 l 0,-1.3825 q 0,-2.065 -0.8925,-3.115 -0.8925,-1.0675 -2.6075,-1.0675 -1.155,0 -1.9425,0.2975 -0.77,0.28 -1.3475,0.6475 -0.56,0.35 -0.98,0.6475 -0.4025,0.28 -0.805,0.28 -0.315,0 -0.5425,-0.1575 -0.2275,-0.175 -0.385,-0.42 l -0.56,-0.9975 q 1.47,-1.4175 3.1675,-2.1175 1.6975,-0.7 3.7625,-0.7 1.4875,0 2.6425,0.49 1.155,0.49 1.9425,1.365 0.7875,0.875 1.19,2.1175 0.4025,1.2425 0.4025,2.73 l 0,11.34 -1.3825,0 z m -6.685,-1.9075 q 0.8225,0 1.505,-0.1575 0.6825,-0.175 1.2775,-0.4725 0.6125,-0.315 1.155,-0.7525 0.56,-0.455 1.085,-1.015 l 0,-3.675 q -2.1525,0.07 -3.675,0.35 -1.505,0.2625 -2.4675,0.7 -0.945,0.4375 -1.3825,1.0325 -0.42,0.595 -0.42,1.33 0,0.7 0.2275,1.2075 0.2275,0.5075 0.6125,0.84 0.4025,0.315 0.9275,0.4725 0.5425,0.14 1.155,0.14 z"
         id="path4362"
         inkscape:connector-curvature="0" />
      <path
         d="m 497.32013,147.03854 0,-17.7275 1.8725,0 q 0.665,0 0.8225,0.6475 l 0.2275,1.82 q 0.98,-1.2075 2.205,-1.9775 1.225,-0.77 2.835,-0.77 1.785,0 2.8875,0.9975 1.12,0.9975 1.61,2.695 0.385,-0.9625 0.98,-1.6625 0.6125,-0.7 1.365,-1.155 0.7525,-0.455 1.5925,-0.665 0.8575,-0.21 1.7325,-0.21 1.4,0 2.485,0.455 1.1025,0.4375 1.855,1.295 0.77,0.8575 1.1725,2.1175 0.4025,1.2425 0.4025,2.8525 l 0,11.2875 -3.1325,0 0,-11.2875 q 0,-2.0825 -0.91,-3.15 -0.91,-1.085 -2.625,-1.085 -0.77,0 -1.47,0.28 -0.6825,0.2625 -1.2075,0.7875 -0.525,0.525 -0.84,1.33 -0.2975,0.7875 -0.2975,1.8375 l 0,11.2875 -3.1325,0 0,-11.2875 q 0,-2.135 -0.8575,-3.185 -0.8575,-1.05 -2.5025,-1.05 -1.155,0 -2.135,0.63 -0.98,0.6125 -1.8025,1.68 l 0,13.2125 -3.1325,0 z"
         id="path4364"
         inkscape:connector-curvature="0" />
      <path
         d="m 529.31943,121.26104 0,25.7775 -3.115,0 0,-25.7775 3.115,0 z"
         id="path4366"
         inkscape:connector-curvature="0" />
    </g>
    <path
       style="display:inline;fill:none;fill-rule:evenodd;stroke:#b58900;stroke-width:3;stroke-linecap:butt;stroke-linejoin:miter;stroke-miterlimit:4;stroke-dasharray:none;stroke-opacity:1;marker-start:url(#marker7478)"
       d="m 478.52375,493.50277 0,-327.50977"
       id="path11374-0-1-6"
       inkscape:connector-curvature="0"
       sodipodi:nodetypes="cc" />
  </g>
  <g
     inkscape:groupmode="layer"
     id="layer7"
     inkscape:label="frag5"
     style="display:inline">
    <rect
       style="display:inline;opacity:0.93000034;fill:none;fill-opacity:1;fill-rule:nonzero;stroke:#b58900;stroke-width:4;stroke-linecap:round;stroke-linejoin:round;stroke-miterlimit:4;stroke-dasharray:none;stroke-dashoffset:0;stroke-opacity:1"
       id="rect11352-1-3-9"
       width="179.99997"
       height="61.666656"
       x="276.56519"
       y="13.889598" />
    <g
       style="font-style:normal;font-variant:normal;font-weight:normal;font-stretch:normal;font-size:35px;line-height:125%;font-family:Lato;-inkscape-font-specification:'Lato, Normal';text-align:start;letter-spacing:0px;word-spacing:0px;writing-mode:lr-tb;text-anchor:start;display:inline;fill:#b58900;fill-opacity:1;stroke:none;stroke-width:1px;stroke-linecap:butt;stroke-linejoin:miter;stroke-opacity:1"
       id="text11354-0-7-4">
      <path
         d="m 334.54155,57.471676 -3.395,0 0,-11.41 -13.5275,0 0,11.41 -3.395,0 0,-25.0775 3.395,0 0,11.1825 13.5275,0 0,-11.1825 3.395,0 0,25.0775 z"
         id="path4369"
         inkscape:connector-curvature="0" />
      <path
         d="m 350.94069,57.471676 q -0.455,0 -0.7,-0.14 -0.245,-0.1575 -0.385,-0.595 l -0.35,-1.6625 q -0.7,0.63 -1.3825,1.1375 -0.665,0.49 -1.4,0.84 -0.7175,0.3325 -1.5575,0.5075 -0.8225,0.1925 -1.8375,0.1925 -1.0325,0 -1.9425,-0.28 -0.91,-0.2975 -1.5925,-0.875 -0.665,-0.5775 -1.0675,-1.4525 -0.385,-0.8925 -0.385,-2.1 0,-1.05 0.5775,-2.0125 0.5775,-0.98 1.8725,-1.7325 1.295,-0.7525 3.3775,-1.225 2.0825,-0.49 5.11,-0.56 l 0,-1.3825 q 0,-2.065 -0.8925,-3.115 -0.8925,-1.0675 -2.6075,-1.0675 -1.155,0 -1.9425,0.2975 -0.77,0.28 -1.3475,0.6475 -0.56,0.35 -0.98,0.6475 -0.4025,0.28 -0.805,0.28 -0.315,0 -0.5425,-0.1575 -0.2275,-0.175 -0.385,-0.42 l -0.56,-0.9975 q 1.47,-1.4175 3.1675,-2.1175 1.6975,-0.7 3.7625,-0.7 1.4875,0 2.6425,0.49 1.155,0.49 1.9425,1.365 0.7875,0.875 1.19,2.1175 0.4025,1.2425 0.4025,2.73 l 0,11.34 -1.3825,0 z m -6.685,-1.9075 q 0.8225,0 1.505,-0.1575 0.6825,-0.175 1.2775,-0.4725 0.6125,-0.315 1.155,-0.7525 0.56,-0.455 1.085,-1.015 l 0,-3.675 q -2.1525,0.07 -3.675,0.35 -1.505,0.2625 -2.4675,0.7 -0.945,0.4375 -1.3825,1.0325 -0.42,0.595 -0.42,1.33 0,0.7 0.2275,1.2075 0.2275,0.5075 0.6125,0.84 0.4025,0.315 0.9275,0.4725 0.5425,0.14 1.155,0.14 z"
         id="path4371"
         inkscape:connector-curvature="0" />
      <path
         d="m 367.35897,42.666676 q -0.21,0.385 -0.6475,0.385 -0.2625,0 -0.595,-0.1925 -0.3325,-0.1925 -0.8225,-0.42 -0.4725,-0.245 -1.1375,-0.4375 -0.665,-0.21 -1.575,-0.21 -0.7875,0 -1.4175,0.21 -0.63,0.1925 -1.085,0.5425 -0.4375,0.35 -0.6825,0.8225 -0.2275,0.455 -0.2275,0.9975 0,0.6825 0.385,1.1375 0.4025,0.455 1.05,0.7875 0.6475,0.3325 1.47,0.595 0.8225,0.245 1.68,0.5425 0.875,0.28 1.6975,0.63 0.8225,0.35 1.47,0.875 0.6475,0.525 1.0325,1.295 0.4025,0.7525 0.4025,1.82 0,1.225 -0.4375,2.275 -0.4375,1.0325 -1.295,1.8025 -0.8575,0.7525 -2.1,1.19 -1.2425,0.4375 -2.87,0.4375 -1.855,0 -3.36,-0.595 -1.505,-0.6125 -2.555,-1.5575 l 0.735,-1.19 q 0.14,-0.2275 0.3325,-0.35 0.1925,-0.1225 0.49,-0.1225 0.315,0 0.665,0.245 0.35,0.245 0.84,0.5425 0.5075,0.2975 1.225,0.5425 0.7175,0.245 1.785,0.245 0.91,0 1.5925,-0.2275 0.6825,-0.245 1.1375,-0.6475 0.455,-0.4025 0.665,-0.9275 0.2275,-0.525 0.2275,-1.12 0,-0.735 -0.4025,-1.2075 -0.385,-0.49 -1.0325,-0.8225 -0.6475,-0.35 -1.4875,-0.595 -0.8225,-0.2625 -1.6975,-0.5425 -0.8575,-0.28 -1.6975,-0.63 -0.8225,-0.3675 -1.47,-0.91 -0.6475,-0.5425 -1.05,-1.33 -0.385,-0.805 -0.385,-1.9425 0,-1.015 0.42,-1.9425 0.42,-0.945 1.225,-1.645 0.805,-0.7175 1.9775,-1.1375 1.1725,-0.42 2.6775,-0.42 1.75,0 3.1325,0.56 1.4,0.5425 2.415,1.505 l -0.7,1.1375 z"
         id="path4373"
         inkscape:connector-curvature="0" />
      <path
         d="m 375.34225,31.694176 0,15.1725 0.805,0 q 0.35,0 0.5775,-0.0875 0.245,-0.105 0.5075,-0.4025 l 5.6,-6.0025 q 0.245,-0.2975 0.5075,-0.455 0.28,-0.175 0.735,-0.175 l 2.8175,0 -6.5275,6.9475 q -0.4725,0.595 -1.015,0.9275 0.315,0.21 0.56,0.49 0.2625,0.2625 0.49,0.6125 l 6.93,8.75 -2.7825,0 q -0.4025,0 -0.7,-0.1225 -0.28,-0.14 -0.49,-0.49 l -5.8275,-7.2625 q -0.2625,-0.3675 -0.525,-0.4725 -0.245,-0.1225 -0.77,-0.1225 l -0.8925,0 0,8.47 -3.1325,0 0,-25.7775 3.1325,0 z"
         id="path4375"
         inkscape:connector-curvature="0" />
      <path
         d="m 396.2203,39.464176 q 1.5925,0 2.94,0.5425 1.365,0.525 2.345,1.54 0.9975,0.9975 1.5575,2.485 0.56,1.47 0.56,3.36 0,0.735 -0.1575,0.98 -0.1575,0.245 -0.595,0.245 l -11.8475,0 q 0.035,1.68 0.455,2.9225 0.42,1.2425 1.155,2.0825 0.735,0.8225 1.75,1.2425 1.015,0.4025 2.275,0.4025 1.1725,0 2.0125,-0.2625 0.8575,-0.28 1.47,-0.595 0.6125,-0.315 1.015,-0.5775 0.42,-0.28 0.7175,-0.28 0.385,0 0.595,0.2975 l 0.875,1.1375 q -0.5775,0.7 -1.3825,1.225 -0.805,0.5075 -1.7325,0.84 -0.91,0.3325 -1.89,0.49 -0.98,0.175 -1.9425,0.175 -1.8375,0 -3.395,-0.6125 -1.54,-0.63 -2.6775,-1.82 -1.12,-1.2075 -1.75,-2.975 -0.63,-1.7675 -0.63,-4.06 0,-1.855 0.56,-3.465 0.5775,-1.61 1.645,-2.7825 1.0675,-1.19 2.6075,-1.855 1.54,-0.6825 3.465,-0.6825 z m 0.07,2.2925 q -2.2575,0 -3.5525,1.3125 -1.295,1.295 -1.61,3.605 l 9.695,0 q 0,-1.085 -0.315,-1.9775 -0.2975,-0.91 -0.8925,-1.5575 -0.5775,-0.665 -1.4175,-1.015 -0.84,-0.3675 -1.9075,-0.3675 z"
         id="path4377"
         inkscape:connector-curvature="0" />
      <path
         d="m 410.63483,31.694176 0,25.7775 -3.115,0 0,-25.7775 3.115,0 z"
         id="path4379"
         inkscape:connector-curvature="0" />
      <path
         d="m 418.90631,31.694176 0,25.7775 -3.115,0 0,-25.7775 3.115,0 z"
         id="path4381"
         inkscape:connector-curvature="0" />
    </g>
    <path
       style="display:inline;fill:none;fill-rule:evenodd;stroke:#b58900;stroke-width:3;stroke-linecap:butt;stroke-linejoin:miter;stroke-miterlimit:4;stroke-dasharray:none;stroke-opacity:1;marker-start:url(#marker7395)"
       d="m 366.56517,494.32426 0,-417.898113"
       id="path11374-0-1"
       inkscape:connector-curvature="0"
       sodipodi:nodetypes="cc" />
  </g>
</svg>
