<?xml version="1.0" encoding="UTF-8" standalone="no"?>
<!-- Created with Inkscape (http://www.inkscape.org/) -->

<svg
   xmlns:dc="http://purl.org/dc/elements/1.1/"
   xmlns:cc="http://creativecommons.org/ns#"
   xmlns:rdf="http://www.w3.org/1999/02/22-rdf-syntax-ns#"
   xmlns:svg="http://www.w3.org/2000/svg"
   xmlns="http://www.w3.org/2000/svg"
   xmlns:sodipodi="http://sodipodi.sourceforge.net/DTD/sodipodi-0.dtd"
   xmlns:inkscape="http://www.inkscape.org/namespaces/inkscape"
   width="1400"
   height="600"
   id="svg4261"
   version="1.1"
   inkscape:version="0.91 r13725"
   viewBox="0 0 1400 600"
   sodipodi:docname="VonNeumann.svg">
  <defs
     id="defs4263">
    <marker
       inkscape:stockid="Arrow2Sstart"
       orient="auto"
       refY="0.0"
       refX="0.0"
       id="marker5659"
       style="overflow:visible"
       inkscape:isstock="true">
      <path
         id="path5661"
         style="fill-rule:evenodd;stroke-width:0.625;stroke-linejoin:round;stroke:#000000;stroke-opacity:1;fill:#000000;fill-opacity:1"
         d="M 8.7185878,4.0337352 L -2.2072895,0.016013256 L 8.7185884,-4.0017078 C 6.9730900,-1.6296469 6.9831476,1.6157441 8.7185878,4.0337352 z "
         transform="scale(0.3) translate(-2.3,0)" />
    </marker>
    <marker
       inkscape:stockid="Arrow2Lstart"
       orient="auto"
       refY="0.0"
       refX="0.0"
       id="Arrow2Lstart"
       style="overflow:visible"
       inkscape:isstock="true">
      <path
         id="path4833"
         style="fill-rule:evenodd;stroke-width:0.625;stroke-linejoin:round;stroke:#000000;stroke-opacity:1;fill:#000000;fill-opacity:1"
         d="M 8.7185878,4.0337352 L -2.2072895,0.016013256 L 8.7185884,-4.0017078 C 6.9730900,-1.6296469 6.9831476,1.6157441 8.7185878,4.0337352 z "
         transform="scale(1.1) translate(1,0)" />
    </marker>
    <marker
       inkscape:stockid="Arrow2Send"
       orient="auto"
       refY="0.0"
       refX="0.0"
       id="Arrow2Send"
       style="overflow:visible;"
       inkscape:isstock="true">
      <path
         id="path4848"
         style="fill-rule:evenodd;stroke-width:0.625;stroke-linejoin:round;stroke:#000000;stroke-opacity:1;fill:#000000;fill-opacity:1"
         d="M 8.7185878,4.0337352 L -2.2072895,0.016013256 L 8.7185884,-4.0017078 C 6.9730900,-1.6296469 6.9831476,1.6157441 8.7185878,4.0337352 z "
         transform="scale(0.3) rotate(180) translate(-2.3,0)" />
    </marker>
    <marker
       inkscape:stockid="Arrow2Sstart"
       orient="auto"
       refY="0.0"
       refX="0.0"
       id="Arrow2Sstart"
       style="overflow:visible"
       inkscape:isstock="true">
      <path
         id="path4845"
         style="fill-rule:evenodd;stroke-width:0.625;stroke-linejoin:round;stroke:#000000;stroke-opacity:1;fill:#000000;fill-opacity:1"
         d="M 8.7185878,4.0337352 L -2.2072895,0.016013256 L 8.7185884,-4.0017078 C 6.9730900,-1.6296469 6.9831476,1.6157441 8.7185878,4.0337352 z "
         transform="scale(0.3) translate(-2.3,0)" />
    </marker>
    <marker
       inkscape:stockid="Arrow1Sstart"
       orient="auto"
       refY="0.0"
       refX="0.0"
       id="Arrow1Sstart"
       style="overflow:visible"
       inkscape:isstock="true">
      <path
         id="path4827"
         d="M 0.0,0.0 L 5.0,-5.0 L -12.5,0.0 L 5.0,5.0 L 0.0,0.0 z "
         style="fill-rule:evenodd;stroke:#000000;stroke-width:1pt;stroke-opacity:1;fill:#000000;fill-opacity:1"
         transform="scale(0.2) translate(6,0)" />
    </marker>
    <marker
       inkscape:stockid="Arrow2Mstart"
       orient="auto"
       refY="0.0"
       refX="0.0"
       id="marker5161"
       style="overflow:visible"
       inkscape:isstock="true">
      <path
         id="path5163"
         style="fill-rule:evenodd;stroke-width:0.625;stroke-linejoin:round;stroke:#000000;stroke-opacity:1;fill:#000000;fill-opacity:1"
         d="M 8.7185878,4.0337352 L -2.2072895,0.016013256 L 8.7185884,-4.0017078 C 6.9730900,-1.6296469 6.9831476,1.6157441 8.7185878,4.0337352 z "
         transform="scale(0.6) translate(0,0)" />
    </marker>
    <marker
       inkscape:stockid="Arrow2Mstart"
       orient="auto"
       refY="0.0"
       refX="0.0"
       id="Arrow2Mstart"
       style="overflow:visible"
       inkscape:isstock="true">
      <path
         id="path4839"
         style="fill-rule:evenodd;stroke-width:0.625;stroke-linejoin:round;stroke:#000000;stroke-opacity:1;fill:#000000;fill-opacity:1"
         d="M 8.7185878,4.0337352 L -2.2072895,0.016013256 L 8.7185884,-4.0017078 C 6.9730900,-1.6296469 6.9831476,1.6157441 8.7185878,4.0337352 z "
         transform="scale(0.6) translate(0,0)" />
    </marker>
    <marker
       inkscape:stockid="Arrow1Mstart"
       orient="auto"
       refY="0.0"
       refX="0.0"
       id="Arrow1Mstart"
       style="overflow:visible"
       inkscape:isstock="true">
      <path
         id="path4821"
         d="M 0.0,0.0 L 5.0,-5.0 L -12.5,0.0 L 5.0,5.0 L 0.0,0.0 z "
         style="fill-rule:evenodd;stroke:#000000;stroke-width:1pt;stroke-opacity:1;fill:#000000;fill-opacity:1"
         transform="scale(0.4) translate(10,0)" />
    </marker>
    <marker
       inkscape:stockid="Arrow1Send"
       orient="auto"
       refY="0.0"
       refX="0.0"
       id="Arrow1Send"
       style="overflow:visible;"
       inkscape:isstock="true">
      <path
         id="path4830"
         d="M 0.0,0.0 L 5.0,-5.0 L -12.5,0.0 L 5.0,5.0 L 0.0,0.0 z "
         style="fill-rule:evenodd;stroke:#000000;stroke-width:1pt;stroke-opacity:1;fill:#000000;fill-opacity:1"
         transform="scale(0.2) rotate(180) translate(6,0)" />
    </marker>
  </defs>
  <sodipodi:namedview
     id="base"
     pagecolor="#ffffff"
     bordercolor="#666666"
     borderopacity="1.0"
     inkscape:pageopacity="0.0"
     inkscape:pageshadow="2"
     inkscape:zoom="1.2"
     inkscape:cx="723.37232"
     inkscape:cy="300"
     inkscape:current-layer="text6076"
     inkscape:document-units="px"
     showgrid="true"
     inkscape:window-width="1600"
     inkscape:window-height="874"
     inkscape:window-x="0"
     inkscape:window-y="0"
     inkscape:window-maximized="1">
    <inkscape:grid
       type="xygrid"
       id="grid5854" />
  </sodipodi:namedview>
  <metadata
     id="metadata4266">
    <rdf:RDF>
      <cc:Work
         rdf:about="">
        <dc:format>image/svg+xml</dc:format>
        <dc:type
           rdf:resource="http://purl.org/dc/dcmitype/StillImage" />
        <dc:title></dc:title>
      </cc:Work>
    </rdf:RDF>
  </metadata>
  <g
     id="layer1"
     inkscape:label="base"
     inkscape:groupmode="layer"
     style="display:inline">
    <rect
       style="opacity:0.93000034;fill:none;fill-opacity:1;fill-rule:nonzero;stroke:#859900;stroke-width:5;stroke-linecap:round;stroke-linejoin:round;stroke-miterlimit:4;stroke-dasharray:none;stroke-dashoffset:0;stroke-opacity:1"
       id="rect5994"
       width="320"
       height="140"
       x="360"
       y="120" />
    <rect
       style="opacity:0.93000034;fill:none;fill-opacity:1;fill-rule:nonzero;stroke:#859900;stroke-width:5;stroke-linecap:round;stroke-linejoin:round;stroke-miterlimit:4;stroke-dasharray:none;stroke-dashoffset:0;stroke-opacity:1"
       id="rect5994-8"
       width="320"
       height="140"
       x="362"
       y="362" />
    <rect
       style="opacity:0.93000034;fill:none;fill-opacity:1;fill-rule:nonzero;stroke:#859900;stroke-width:5;stroke-linecap:round;stroke-linejoin:round;stroke-miterlimit:4;stroke-dasharray:none;stroke-dashoffset:0;stroke-opacity:1"
       id="rect5994-89"
       width="320"
       height="140"
       x="700"
       y="120" />
    <rect
       style="opacity:0.93000034;fill:none;fill-opacity:1;fill-rule:nonzero;stroke:#859900;stroke-width:5;stroke-linecap:round;stroke-linejoin:round;stroke-miterlimit:4;stroke-dasharray:none;stroke-dashoffset:0;stroke-opacity:1"
       id="rect5994-8-7"
       width="320"
       height="140"
       x="700"
       y="362" />
    <g
       style="font-style:normal;font-variant:normal;font-weight:normal;font-stretch:normal;font-size:35px;line-height:125%;font-family:Lato;-inkscape-font-specification:'Lato, Normal';text-align:start;letter-spacing:0px;word-spacing:0px;writing-mode:lr-tb;text-anchor:start;fill:#859900;fill-opacity:0.93333333;stroke:none;stroke-width:1px;stroke-linecap:butt;stroke-linejoin:miter;stroke-opacity:0.93333333"
       id="text6076">
      <path
         d="m 467.66057,434.71967 q 0.21,0.42 0.4025,0.8925 0.1925,0.455 0.385,0.91 0.175,-0.4725 0.3675,-0.9275 0.1925,-0.4725 0.42,-0.8925 l 8.505,-15.4175 q 0.21,-0.4025 0.455,-0.49 0.2625,-0.0875 0.7175,-0.0875 l 2.5025,0 0,25.0775 -2.975,0 0,-18.4275 q 0,-0.3675 0.0175,-0.7875 0.0175,-0.42 0.0525,-0.8575 l -8.5925,15.68 q -0.4025,0.7875 -1.225,0.7875 l -0.49,0 q -0.8225,0 -1.225,-0.7875 l -8.785,-15.7325 q 0.0525,0.455 0.07,0.8925 0.035,0.4375 0.035,0.805 l 0,18.4275 -2.975,0 0,-25.0775 2.5025,0 q 0.455,0 0.7,0.0875 0.245,0.0875 0.4725,0.49 l 8.6625,15.435 0,0 z"
         style=""
         id="path4353" />
      <path
         d="m 485.4969,443.78467 0,0 z m 8.2775,-18.0075 q 1.5925,0 2.94,0.5425 1.365,0.525 2.345,1.54 0.9975,0.9975 1.5575,2.485 0.56,1.47 0.56,3.36 0,0.735 -0.1575,0.98 -0.1575,0.245 -0.595,0.245 l -11.8475,0 q 0.035,1.68 0.455,2.9225 0.42,1.2425 1.155,2.0825 0.735,0.8225 1.75,1.2425 1.015,0.4025 2.275,0.4025 1.1725,0 2.0125,-0.2625 0.8575,-0.28 1.47,-0.595 0.6125,-0.315 1.015,-0.5775 0.42,-0.28 0.7175,-0.28 0.385,0 0.595,0.2975 l 0.875,1.1375 q -0.5775,0.7 -1.3825,1.225 -0.805,0.5075 -1.7325,0.84 -0.91,0.3325 -1.89,0.49 -0.98,0.175 -1.9425,0.175 -1.8375,0 -3.395,-0.6125 -1.54,-0.63 -2.6775,-1.82 -1.12,-1.2075 -1.75,-2.975 -0.63,-1.7675 -0.63,-4.06 0,-1.855 0.56,-3.465 0.5775,-1.61 1.645,-2.7825 1.0675,-1.19 2.6075,-1.855 1.54,-0.6825 3.465,-0.6825 z m 0.07,2.2925 q -2.2575,0 -3.5525,1.3125 -1.295,1.295 -1.61,3.605 l 9.695,0 q 0,-1.085 -0.315,-1.9775 -0.2975,-0.91 -0.8925,-1.5575 -0.5775,-0.665 -1.4175,-1.015 -0.84,-0.3675 -1.9075,-0.3675 z m 5.0925,-9.6425 -4.0775,4.515 q -0.245,0.2625 -0.49,0.385 -0.2275,0.105 -0.595,0.105 l -1.855,0 2.59,-4.235 q 0.245,-0.4025 0.525,-0.5775 0.2975,-0.1925 0.8575,-0.1925 l 3.045,0 z"
         style=""
         id="path4355" />
      <path
         d="m 504.96893,443.78467 0,-17.7275 1.8725,0 q 0.665,0 0.8225,0.6475 l 0.2275,1.82 q 0.98,-1.2075 2.205,-1.9775 1.225,-0.77 2.835,-0.77 1.785,0 2.8875,0.9975 1.12,0.9975 1.61,2.695 0.385,-0.9625 0.98,-1.6625 0.6125,-0.7 1.365,-1.155 0.7525,-0.455 1.5925,-0.665 0.8575,-0.21 1.7325,-0.21 1.4,0 2.485,0.455 1.1025,0.4375 1.855,1.295 0.77,0.8575 1.1725,2.1175 0.4025,1.2425 0.4025,2.8525 l 0,11.2875 -3.1325,0 0,-11.2875 q 0,-2.0825 -0.91,-3.15 -0.91,-1.085 -2.625,-1.085 -0.77,0 -1.47,0.28 -0.6825,0.2625 -1.2075,0.7875 -0.525,0.525 -0.84,1.33 -0.2975,0.7875 -0.2975,1.8375 l 0,11.2875 -3.1325,0 0,-11.2875 q 0,-2.135 -0.8575,-3.185 -0.8575,-1.05 -2.5025,-1.05 -1.155,0 -2.135,0.63 -0.98,0.6125 -1.8025,1.68 l 0,13.2125 -3.1325,0 z"
         style=""
         id="path4357" />
      <path
         d="m 541.22073,425.77717 q 1.9425,0 3.5,0.6475 1.5575,0.6475 2.66,1.8375 1.1025,1.19 1.68,2.8875 0.595,1.68 0.595,3.7625 0,2.1 -0.595,3.78 -0.5775,1.68 -1.68,2.87 -1.1025,1.19 -2.66,1.8375 -1.5575,0.63 -3.5,0.63 -1.96,0 -3.535,-0.63 -1.5575,-0.6475 -2.66,-1.8375 -1.1025,-1.19 -1.6975,-2.87 -0.5775,-1.68 -0.5775,-3.78 0,-2.0825 0.5775,-3.7625 0.595,-1.6975 1.6975,-2.8875 1.1025,-1.19 2.66,-1.8375 1.575,-0.6475 3.535,-0.6475 z m 0,15.82 q 2.625,0 3.92,-1.75 1.295,-1.7675 1.295,-4.9175 0,-3.1675 -1.295,-4.935 -1.295,-1.7675 -3.92,-1.7675 -1.33,0 -2.3275,0.455 -0.98,0.455 -1.645,1.3125 -0.6475,0.8575 -0.98,2.1175 -0.315,1.2425 -0.315,2.8175 0,3.15 1.295,4.9175 1.3125,1.75 3.9725,1.75 z"
         style=""
         id="path4359" />
      <path
         d="m 556.86245,426.05717 0,17.7275 -3.115,0 0,-17.7275 3.115,0 z m 0.665,-5.565 q 0,0.455 -0.1925,0.8575 -0.175,0.385 -0.49,0.7 -0.2975,0.2975 -0.7175,0.4725 -0.4025,0.175 -0.8575,0.175 -0.455,0 -0.8575,-0.175 -0.385,-0.175 -0.6825,-0.4725 -0.2975,-0.315 -0.4725,-0.7 -0.175,-0.4025 -0.175,-0.8575 0,-0.455 0.175,-0.8575 0.175,-0.42 0.4725,-0.7175 0.2975,-0.315 0.6825,-0.49 0.4025,-0.175 0.8575,-0.175 0.455,0 0.8575,0.175 0.42,0.175 0.7175,0.49 0.315,0.2975 0.49,0.7175 0.1925,0.4025 0.1925,0.8575 z"
         style=""
         id="path4361" />
      <path
         d="m 561.98065,443.78467 0,-17.7275 1.785,0 q 0.5075,0 0.7,0.1925 0.1925,0.1925 0.2625,0.665 l 0.1925,2.695 q 0.84,-1.82 2.065,-2.835 1.2425,-1.0325 3.01,-1.0325 0.56,0 1.0675,0.1225 0.525,0.1225 0.9275,0.385 l -0.2275,2.3275 q -0.105,0.4375 -0.525,0.4375 -0.245,0 -0.7175,-0.105 -0.4725,-0.105 -1.0675,-0.105 -0.84,0 -1.505,0.2625 -0.665,0.245 -1.19,0.735 -0.5075,0.4725 -0.91,1.1725 -0.4025,0.7 -0.735,1.61 l 0,11.2 -3.1325,0 z"
         style=""
         id="path4363" />
      <path
         d="m 581.2744,425.77717 q 1.5925,0 2.94,0.5425 1.365,0.525 2.345,1.54 0.9975,0.9975 1.5575,2.485 0.56,1.47 0.56,3.36 0,0.735 -0.1575,0.98 -0.1575,0.245 -0.595,0.245 l -11.8475,0 q 0.035,1.68 0.455,2.9225 0.42,1.2425 1.155,2.0825 0.735,0.8225 1.75,1.2425 1.015,0.4025 2.275,0.4025 1.1725,0 2.0125,-0.2625 0.8575,-0.28 1.47,-0.595 0.6125,-0.315 1.015,-0.5775 0.42,-0.28 0.7175,-0.28 0.385,0 0.595,0.2975 l 0.875,1.1375 q -0.5775,0.7 -1.3825,1.225 -0.805,0.5075 -1.7325,0.84 -0.91,0.3325 -1.89,0.49 -0.98,0.175 -1.9425,0.175 -1.8375,0 -3.395,-0.6125 -1.54,-0.63 -2.6775,-1.82 -1.12,-1.2075 -1.75,-2.975 -0.63,-1.7675 -0.63,-4.06 0,-1.855 0.56,-3.465 0.5775,-1.61 1.645,-2.7825 1.0675,-1.19 2.6075,-1.855 1.54,-0.6825 3.465,-0.6825 z m 0.07,2.2925 q -2.2575,0 -3.5525,1.3125 -1.295,1.295 -1.61,3.605 l 9.695,0 q 0,-1.085 -0.315,-1.9775 -0.2975,-0.91 -0.8925,-1.5575 -0.5775,-0.665 -1.4175,-1.015 -0.84,-0.3675 -1.9075,-0.3675 z"
         style=""
         id="path4365" />
    </g>
    <g
       style="font-style:normal;font-variant:normal;font-weight:normal;font-stretch:normal;font-size:35px;line-height:125%;font-family:Lato;-inkscape-font-specification:'Lato, Normal';text-align:start;letter-spacing:0px;word-spacing:0px;writing-mode:lr-tb;text-anchor:start;fill:#859900;fill-opacity:0.93333333;stroke:none;stroke-width:1px;stroke-linecap:butt;stroke-linejoin:miter;stroke-opacity:0.93333333"
       id="text6080">
      <path
         d="m 758.73294,417.52797 0,2.765 -12.0575,0 0,8.33 9.765,0 0,2.66 -9.765,0 0,8.5575 12.075,0 -0.0175,2.765 -15.4525,0 0,-25.0775 15.4525,0 z"
         style=""
         id="path4241" />
      <path
         d="m 762.3013,442.60547 0,-17.7275 1.8725,0 q 0.665,0 0.8225,0.6475 l 0.245,1.925 q 1.155,-1.2775 2.59,-2.065 1.435,-0.7875 3.3075,-0.7875 1.4525,0 2.555,0.49 1.12,0.4725 1.855,1.365 0.7525,0.875 1.1375,2.1175 0.385,1.2425 0.385,2.7475 l 0,11.2875 -3.1325,0 0,-11.2875 q 0,-2.0125 -0.9275,-3.115 -0.91,-1.12 -2.7825,-1.12 -1.4,0 -2.6075,0.665 -1.19,0.665 -2.1875,1.8025 l 0,13.055 -3.1325,0 z"
         style=""
         id="path4243" />
      <path
         d="m 787.02115,442.88547 q -2.1,0 -3.2375,-1.1725 -1.12,-1.1725 -1.12,-3.3775 l 0,-10.85 -2.135,0 q -0.28,0 -0.4725,-0.1575 -0.1925,-0.175 -0.1925,-0.525 l 0,-1.2425 2.905,-0.3675 0.7175,-5.4775 q 0.0525,-0.2625 0.2275,-0.42 0.1925,-0.175 0.49,-0.175 l 1.575,0 0,6.1075 5.1275,0 0,2.2575 -5.1275,0 0,10.64 q 0,1.12 0.5425,1.6625 0.5425,0.5425 1.4,0.5425 0.49,0 0.84,-0.1225 0.3675,-0.14 0.63,-0.2975 0.2625,-0.1575 0.4375,-0.28 0.1925,-0.14 0.3325,-0.14 0.245,0 0.4375,0.2975 l 0.91,1.4875 q -0.805,0.7525 -1.9425,1.19 -1.1375,0.42 -2.345,0.42 z"
         style=""
         id="path4245" />
      <path
         d="m 794.15677,442.60547 0,-17.7275 1.785,0 q 0.5075,0 0.7,0.1925 0.1925,0.1925 0.2625,0.665 l 0.1925,2.695 q 0.84,-1.82 2.065,-2.835 1.2425,-1.0325 3.01,-1.0325 0.56,0 1.0675,0.1225 0.525,0.1225 0.9275,0.385 l -0.2275,2.3275 q -0.105,0.4375 -0.525,0.4375 -0.245,0 -0.7175,-0.105 -0.4725,-0.105 -1.0675,-0.105 -0.84,0 -1.505,0.2625 -0.665,0.245 -1.19,0.735 -0.5075,0.4725 -0.91,1.1725 -0.4025,0.7 -0.735,1.61 l 0,11.2 -3.1325,0 z"
         style=""
         id="path4247" />
      <path
         d="m 805.17302,442.60547 0,0 z m 8.2775,-18.0075 q 1.5925,0 2.94,0.5425 1.365,0.525 2.345,1.54 0.9975,0.9975 1.5575,2.485 0.56,1.47 0.56,3.36 0,0.735 -0.1575,0.98 -0.1575,0.245 -0.595,0.245 l -11.8475,0 q 0.035,1.68 0.455,2.9225 0.42,1.2425 1.155,2.0825 0.735,0.8225 1.75,1.2425 1.015,0.4025 2.275,0.4025 1.1725,0 2.0125,-0.2625 0.8575,-0.28 1.47,-0.595 0.6125,-0.315 1.015,-0.5775 0.42,-0.28 0.7175,-0.28 0.385,0 0.595,0.2975 l 0.875,1.1375 q -0.5775,0.7 -1.3825,1.225 -0.805,0.5075 -1.7325,0.84 -0.91,0.3325 -1.89,0.49 -0.98,0.175 -1.9425,0.175 -1.8375,0 -3.395,-0.6125 -1.54,-0.63 -2.6775,-1.82 -1.12,-1.2075 -1.75,-2.975 -0.63,-1.7675 -0.63,-4.06 0,-1.855 0.56,-3.465 0.5775,-1.61 1.645,-2.7825 1.0675,-1.19 2.6075,-1.855 1.54,-0.6825 3.465,-0.6825 z m 0.07,2.2925 q -2.2575,0 -3.5525,1.3125 -1.295,1.295 -1.61,3.605 l 9.695,0 q 0,-1.085 -0.315,-1.9775 -0.2975,-0.91 -0.8925,-1.5575 -0.5775,-0.665 -1.4175,-1.015 -0.84,-0.3675 -1.9075,-0.3675 z m 5.0925,-9.6425 -4.0775,4.515 q -0.245,0.2625 -0.49,0.385 -0.2275,0.105 -0.595,0.105 l -1.855,0 2.59,-4.235 q 0.245,-0.4025 0.525,-0.5775 0.2975,-0.1925 0.8575,-0.1925 l 3.045,0 z"
         style=""
         id="path4249" />
      <path
         d="m 831.90755,424.59797 q 1.5925,0 2.94,0.5425 1.365,0.525 2.345,1.54 0.9975,0.9975 1.5575,2.485 0.56,1.47 0.56,3.36 0,0.735 -0.1575,0.98 -0.1575,0.245 -0.595,0.245 l -11.8475,0 q 0.035,1.68 0.455,2.9225 0.42,1.2425 1.155,2.0825 0.735,0.8225 1.75,1.2425 1.015,0.4025 2.275,0.4025 1.1725,0 2.0125,-0.2625 0.8575,-0.28 1.47,-0.595 0.6125,-0.315 1.015,-0.5775 0.42,-0.28 0.7175,-0.28 0.385,0 0.595,0.2975 l 0.875,1.1375 q -0.5775,0.7 -1.3825,1.225 -0.805,0.5075 -1.7325,0.84 -0.91,0.3325 -1.89,0.49 -0.98,0.175 -1.9425,0.175 -1.8375,0 -3.395,-0.6125 -1.54,-0.63 -2.6775,-1.82 -1.12,-1.2075 -1.75,-2.975 -0.63,-1.7675 -0.63,-4.06 0,-1.855 0.56,-3.465 0.5775,-1.61 1.645,-2.7825 1.0675,-1.19 2.6075,-1.855 1.54,-0.6825 3.465,-0.6825 z m 0.07,2.2925 q -2.2575,0 -3.5525,1.3125 -1.295,1.295 -1.61,3.605 l 9.695,0 q 0,-1.085 -0.315,-1.9775 -0.2975,-0.91 -0.8925,-1.5575 -0.5775,-0.665 -1.4175,-1.015 -0.84,-0.3675 -1.9075,-0.3675 z"
         style=""
         id="path4251" />
      <path
         d="m 853.42708,427.80047 q -0.21,0.385 -0.6475,0.385 -0.2625,0 -0.595,-0.1925 -0.3325,-0.1925 -0.8225,-0.42 -0.4725,-0.245 -1.1375,-0.4375 -0.665,-0.21 -1.575,-0.21 -0.7875,0 -1.4175,0.21 -0.63,0.1925 -1.085,0.5425 -0.4375,0.35 -0.6825,0.8225 -0.2275,0.455 -0.2275,0.9975 0,0.6825 0.385,1.1375 0.4025,0.455 1.05,0.7875 0.6475,0.3325 1.47,0.595 0.8225,0.245 1.68,0.5425 0.875,0.28 1.6975,0.63 0.8225,0.35 1.47,0.875 0.6475,0.525 1.0325,1.295 0.4025,0.7525 0.4025,1.82 0,1.225 -0.4375,2.275 -0.4375,1.0325 -1.295,1.8025 -0.8575,0.7525 -2.1,1.19 -1.2425,0.4375 -2.87,0.4375 -1.855,0 -3.36,-0.595 -1.505,-0.6125 -2.555,-1.5575 l 0.735,-1.19 q 0.14,-0.2275 0.3325,-0.35 0.1925,-0.1225 0.49,-0.1225 0.315,0 0.665,0.245 0.35,0.245 0.84,0.5425 0.5075,0.2975 1.225,0.5425 0.7175,0.245 1.785,0.245 0.91,0 1.5925,-0.2275 0.6825,-0.245 1.1375,-0.6475 0.455,-0.4025 0.665,-0.9275 0.2275,-0.525 0.2275,-1.12 0,-0.735 -0.4025,-1.2075 -0.385,-0.49 -1.0325,-0.8225 -0.6475,-0.35 -1.4875,-0.595 -0.8225,-0.2625 -1.6975,-0.5425 -0.8575,-0.28 -1.6975,-0.63 -0.8225,-0.3675 -1.47,-0.91 -0.6475,-0.5425 -1.05,-1.33 -0.385,-0.805 -0.385,-1.9425 0,-1.015 0.42,-1.9425 0.42,-0.945 1.225,-1.645 0.805,-0.7175 1.9775,-1.1375 1.1725,-0.42 2.6775,-0.42 1.75,0 3.1325,0.56 1.4,0.5425 2.415,1.505 l -0.7,1.1375 z"
         style=""
         id="path4253" />
      <path
         d="m 859.99286,442.97297 q -0.2275,0.6125 -0.7175,0.91 -0.4725,0.2975 -0.98,0.2975 l -1.3125,0 10.5175,-26.1975 q 0.21,-0.56 0.63,-0.8575 0.4375,-0.2975 0.9975,-0.2975 l 1.33,0 -10.465,26.145 z"
         style=""
         id="path4255" />
      <path
         d="m 887.63138,421.44797 q -0.1575,0.2625 -0.35,0.4025 -0.175,0.1225 -0.4375,0.1225 -0.2975,0 -0.7,-0.2975 -0.4025,-0.2975 -1.015,-0.6475 -0.595,-0.3675 -1.4525,-0.665 -0.84,-0.2975 -2.0475,-0.2975 -1.1375,0 -2.0125,0.315 -0.8575,0.2975 -1.4525,0.8225 -0.5775,0.525 -0.875,1.2425 -0.2975,0.7 -0.2975,1.5225 0,1.05 0.5075,1.75 0.525,0.6825 1.365,1.1725 0.8575,0.49 1.925,0.8575 1.085,0.35 2.205,0.735 1.1375,0.385 2.205,0.875 1.085,0.4725 1.925,1.2075 0.8575,0.735 1.365,1.8025 0.525,1.0675 0.525,2.625 0,1.645 -0.56,3.0975 -0.56,1.435 -1.645,2.5025 -1.0675,1.0675 -2.6425,1.68 -1.5575,0.6125 -3.5525,0.6125 -2.45,0 -4.445,-0.875 -1.995,-0.8925 -3.4125,-2.3975 l 0.98,-1.61 q 0.14,-0.1925 0.3325,-0.315 0.21,-0.14 0.455,-0.14 0.2275,0 0.5075,0.1925 0.2975,0.175 0.665,0.455 0.3675,0.28 0.84,0.6125 0.4725,0.3325 1.0675,0.6125 0.6125,0.28 1.3825,0.4725 0.77,0.175 1.7325,0.175 1.2075,0 2.1525,-0.3325 0.945,-0.3325 1.5925,-0.9275 0.665,-0.6125 1.015,-1.4525 0.35,-0.84 0.35,-1.8725 0,-1.1375 -0.525,-1.855 -0.5075,-0.735 -1.3475,-1.225 -0.84,-0.49 -1.925,-0.8225 -1.085,-0.35 -2.205,-0.7 -1.12,-0.3675 -2.205,-0.84 -1.085,-0.4725 -1.925,-1.225 -0.84,-0.7525 -1.365,-1.8725 -0.5075,-1.1375 -0.5075,-2.8 0,-1.33 0.5075,-2.5725 0.525,-1.2425 1.505,-2.205 0.9975,-0.9625 2.4325,-1.54 1.4525,-0.5775 3.325,-0.5775 2.1,0 3.815,0.665 1.7325,0.665 3.045,1.925 l -0.8225,1.61 z"
         style=""
         id="path4257" />
      <path
         d="m 900.34021,424.59797 q 1.9425,0 3.5,0.6475 1.5575,0.6475 2.66,1.8375 1.1025,1.19 1.68,2.8875 0.595,1.68 0.595,3.7625 0,2.1 -0.595,3.78 -0.5775,1.68 -1.68,2.87 -1.1025,1.19 -2.66,1.8375 -1.5575,0.63 -3.5,0.63 -1.96,0 -3.535,-0.63 -1.5575,-0.6475 -2.66,-1.8375 -1.1025,-1.19 -1.6975,-2.87 -0.5775,-1.68 -0.5775,-3.78 0,-2.0825 0.5775,-3.7625 0.595,-1.6975 1.6975,-2.8875 1.1025,-1.19 2.66,-1.8375 1.575,-0.6475 3.535,-0.6475 z m 0,15.82 q 2.625,0 3.92,-1.75 1.295,-1.7675 1.295,-4.9175 0,-3.1675 -1.295,-4.935 -1.295,-1.7675 -3.92,-1.7675 -1.33,0 -2.3275,0.455 -0.98,0.455 -1.645,1.3125 -0.6475,0.8575 -0.98,2.1175 -0.315,1.2425 -0.315,2.8175 0,3.15 1.295,4.9175 1.3125,1.75 3.9725,1.75 z"
         style=""
         id="path4259" />
      <path
         d="m 912.69193,442.60547 0,-17.7275 1.785,0 q 0.5075,0 0.7,0.1925 0.1925,0.1925 0.2625,0.665 l 0.1925,2.695 q 0.84,-1.82 2.065,-2.835 1.2425,-1.0325 3.01,-1.0325 0.56,0 1.0675,0.1225 0.525,0.1225 0.9275,0.385 l -0.2275,2.3275 q -0.105,0.4375 -0.525,0.4375 -0.245,0 -0.7175,-0.105 -0.4725,-0.105 -1.0675,-0.105 -0.84,0 -1.505,0.2625 -0.665,0.245 -1.19,0.735 -0.5075,0.4725 -0.91,1.1725 -0.4025,0.7 -0.735,1.61 l 0,11.2 -3.1325,0 z"
         style=""
         id="path4261" />
      <path
         d="m 923.69177,442.60547 0,0 z m 7.1575,0.28 q -2.1,0 -3.2375,-1.1725 -1.12,-1.1725 -1.12,-3.3775 l 0,-10.85 -2.135,0 q -0.28,0 -0.4725,-0.1575 -0.1925,-0.175 -0.1925,-0.525 l 0,-1.2425 2.905,-0.3675 0.7175,-5.4775 q 0.0525,-0.2625 0.2275,-0.42 0.1925,-0.175 0.49,-0.175 l 1.575,0 0,6.1075 12.25,0 0,17.3775 -3.115,0 0,-15.12 -9.135,0 0,10.64 q 0,1.12 0.5425,1.6625 0.5425,0.5425 1.4,0.5425 0.49,0 0.84,-0.1225 0.3675,-0.14 0.63,-0.2975 0.2625,-0.1575 0.4375,-0.28 0.1925,-0.14 0.3325,-0.14 0.245,0 0.4375,0.2975 l 0.91,1.4875 q -0.805,0.7525 -1.9425,1.19 -1.1375,0.42 -2.345,0.42 z m 11.7775,-23.695 q 0,0.455 -0.1925,0.8575 -0.175,0.385 -0.49,0.6825 -0.2975,0.2975 -0.7,0.4725 -0.4025,0.175 -0.8575,0.175 -0.455,0 -0.8575,-0.175 -0.385,-0.175 -0.6825,-0.4725 -0.2975,-0.2975 -0.4725,-0.6825 -0.175,-0.4025 -0.175,-0.8575 0,-0.455 0.175,-0.8575 0.175,-0.42 0.4725,-0.7175 0.2975,-0.315 0.6825,-0.49 0.4025,-0.175 0.8575,-0.175 0.455,0 0.8575,0.175 0.4025,0.175 0.7,0.49 0.315,0.2975 0.49,0.7175 0.1925,0.4025 0.1925,0.8575 z"
         style=""
         id="path4263" />
      <path
         d="m 954.20247,424.59797 q 1.5925,0 2.94,0.5425 1.365,0.525 2.345,1.54 0.9975,0.9975 1.5575,2.485 0.56,1.47 0.56,3.36 0,0.735 -0.1575,0.98 -0.1575,0.245 -0.595,0.245 l -11.8475,0 q 0.035,1.68 0.455,2.9225 0.42,1.2425 1.155,2.0825 0.735,0.8225 1.75,1.2425 1.015,0.4025 2.275,0.4025 1.1725,0 2.0125,-0.2625 0.8575,-0.28 1.47,-0.595 0.6125,-0.315 1.015,-0.5775 0.42,-0.28 0.7175,-0.28 0.385,0 0.595,0.2975 l 0.875,1.1375 q -0.5775,0.7 -1.3825,1.225 -0.805,0.5075 -1.7325,0.84 -0.91,0.3325 -1.89,0.49 -0.98,0.175 -1.9425,0.175 -1.8375,0 -3.395,-0.6125 -1.54,-0.63 -2.6775,-1.82 -1.12,-1.2075 -1.75,-2.975 -0.63,-1.7675 -0.63,-4.06 0,-1.855 0.56,-3.465 0.5775,-1.61 1.645,-2.7825 1.0675,-1.19 2.6075,-1.855 1.54,-0.6825 3.465,-0.6825 z m 0.07,2.2925 q -2.2575,0 -3.5525,1.3125 -1.295,1.295 -1.61,3.605 l 9.695,0 q 0,-1.085 -0.315,-1.9775 -0.2975,-0.91 -0.8925,-1.5575 -0.5775,-0.665 -1.4175,-1.015 -0.84,-0.3675 -1.9075,-0.3675 z"
         style=""
         id="path4265" />
      <path
         d="m 975.722,427.80047 q -0.21,0.385 -0.6475,0.385 -0.2625,0 -0.595,-0.1925 -0.3325,-0.1925 -0.8225,-0.42 -0.4725,-0.245 -1.1375,-0.4375 -0.665,-0.21 -1.575,-0.21 -0.7875,0 -1.4175,0.21 -0.63,0.1925 -1.085,0.5425 -0.4375,0.35 -0.6825,0.8225 -0.2275,0.455 -0.2275,0.9975 0,0.6825 0.385,1.1375 0.4025,0.455 1.05,0.7875 0.6475,0.3325 1.47,0.595 0.8225,0.245 1.68,0.5425 0.875,0.28 1.6975,0.63 0.8225,0.35 1.47,0.875 0.6475,0.525 1.0325,1.295 0.4025,0.7525 0.4025,1.82 0,1.225 -0.4375,2.275 -0.4375,1.0325 -1.295,1.8025 -0.8575,0.7525 -2.1,1.19 -1.2425,0.4375 -2.87,0.4375 -1.855,0 -3.36,-0.595 -1.505,-0.6125 -2.555,-1.5575 l 0.735,-1.19 q 0.14,-0.2275 0.3325,-0.35 0.1925,-0.1225 0.49,-0.1225 0.315,0 0.665,0.245 0.35,0.245 0.84,0.5425 0.5075,0.2975 1.225,0.5425 0.7175,0.245 1.785,0.245 0.91,0 1.5925,-0.2275 0.6825,-0.245 1.1375,-0.6475 0.455,-0.4025 0.665,-0.9275 0.2275,-0.525 0.2275,-1.12 0,-0.735 -0.4025,-1.2075 -0.385,-0.49 -1.0325,-0.8225 -0.6475,-0.35 -1.4875,-0.595 -0.8225,-0.2625 -1.6975,-0.5425 -0.8575,-0.28 -1.6975,-0.63 -0.8225,-0.3675 -1.47,-0.91 -0.6475,-0.5425 -1.05,-1.33 -0.385,-0.805 -0.385,-1.9425 0,-1.015 0.42,-1.9425 0.42,-0.945 1.225,-1.645 0.805,-0.7175 1.9775,-1.1375 1.1725,-0.42 2.6775,-0.42 1.75,0 3.1325,0.56 1.4,0.5425 2.415,1.505 l -0.7,1.1375 z"
         style=""
         id="path4267" />
    </g>
    <flowRoot
       xml:space="preserve"
       id="flowRoot6084"
       style="font-style:normal;font-variant:normal;font-weight:normal;font-stretch:normal;font-size:17.5px;line-height:125%;font-family:Sans;-inkscape-font-specification:'Sans, Normal';text-align:start;letter-spacing:0px;word-spacing:0px;writing-mode:lr-tb;text-anchor:start;fill:#000000;fill-opacity:1;stroke:none;stroke-width:1px;stroke-linecap:butt;stroke-linejoin:miter;stroke-opacity:1"><flowRegion
         id="flowRegion6086"><rect
           id="rect6088"
           width="80"
           height="40"
           x="380"
           y="80" /></flowRegion><flowPara
         id="flowPara6090" /></flowRoot>    <g
       style="font-style:normal;font-variant:normal;font-weight:normal;font-stretch:normal;font-size:35px;line-height:125%;font-family:Lato;-inkscape-font-specification:'Lato, Normal';text-align:start;letter-spacing:0px;word-spacing:0px;writing-mode:lr-tb;text-anchor:start;fill:#859900;fill-opacity:0.93333333;stroke:none;stroke-width:1px;stroke-linecap:butt;stroke-linejoin:miter;stroke-opacity:0.93333333"
       id="text6062">
      <path
         d="m 723.88256,158.68195 q 1.5575,0 2.7825,-0.525 1.225,-0.525 2.065,-1.47 0.8575,-0.945 1.295,-2.2575 0.455,-1.3125 0.455,-2.8875 l 0,-15.2425 3.3775,0 0,15.2425 q 0,2.17 -0.7,4.025 -0.6825,1.855 -1.9775,3.22 -1.2775,1.3475 -3.1325,2.1175 -1.855,0.77 -4.165,0.77 -2.31,0 -4.165,-0.77 -1.855,-0.77 -3.15,-2.1175 -1.295,-1.365 -1.995,-3.22 -0.6825,-1.855 -0.6825,-4.025 l 0,-15.2425 3.3775,0 0,15.225 q 0,1.575 0.4375,2.8875 0.455,1.3125 1.295,2.2575 0.8575,0.945 2.0825,1.4875 1.2425,0.525 2.8,0.525 z"
         style=""
         id="path4288" />
      <path
         d="m 738.69467,161.37695 0,-17.7275 1.8725,0 q 0.665,0 0.8225,0.6475 l 0.245,1.925 q 1.155,-1.2775 2.59,-2.065 1.435,-0.7875 3.3075,-0.7875 1.4525,0 2.555,0.49 1.12,0.4725 1.855,1.365 0.7525,0.875 1.1375,2.1175 0.385,1.2425 0.385,2.7475 l 0,11.2875 -3.1325,0 0,-11.2875 q 0,-2.0125 -0.9275,-3.115 -0.91,-1.12 -2.7825,-1.12 -1.4,0 -2.6075,0.665 -1.19,0.665 -2.1875,1.8025 l 0,13.055 -3.1325,0 z"
         style=""
         id="path4290" />
      <path
         d="m 761.53545,143.64945 0,17.7275 -3.115,0 0,-17.7275 3.115,0 z m 0.665,-5.565 q 0,0.455 -0.1925,0.8575 -0.175,0.385 -0.49,0.7 -0.2975,0.2975 -0.7175,0.4725 -0.4025,0.175 -0.8575,0.175 -0.455,0 -0.8575,-0.175 -0.385,-0.175 -0.6825,-0.4725 -0.2975,-0.315 -0.4725,-0.7 -0.175,-0.4025 -0.175,-0.8575 0,-0.455 0.175,-0.8575 0.175,-0.42 0.4725,-0.7175 0.2975,-0.315 0.6825,-0.49 0.4025,-0.175 0.8575,-0.175 0.455,0 0.8575,0.175 0.42,0.175 0.7175,0.49 0.315,0.2975 0.49,0.7175 0.1925,0.4025 0.1925,0.8575 z"
         style=""
         id="path4292" />
      <path
         d="m 772.09616,161.65695 q -2.1,0 -3.2375,-1.1725 -1.12,-1.1725 -1.12,-3.3775 l 0,-10.85 -2.135,0 q -0.28,0 -0.4725,-0.1575 -0.1925,-0.175 -0.1925,-0.525 l 0,-1.2425 2.905,-0.3675 0.7175,-5.4775 q 0.0525,-0.2625 0.2275,-0.42 0.1925,-0.175 0.49,-0.175 l 1.575,0 0,6.1075 5.1275,0 0,2.2575 -5.1275,0 0,10.64 q 0,1.12 0.5425,1.6625 0.5425,0.5425 1.4,0.5425 0.49,0 0.84,-0.1225 0.3675,-0.14 0.63,-0.2975 0.2625,-0.1575 0.4375,-0.28 0.1925,-0.14 0.3325,-0.14 0.245,0 0.4375,0.2975 l 0.91,1.4875 q -0.805,0.7525 -1.9425,1.19 -1.1375,0.42 -2.345,0.42 z"
         style=""
         id="path4294" />
      <path
         d="m 778.21678,161.37695 0,0 z m 8.2775,-18.0075 q 1.5925,0 2.94,0.5425 1.365,0.525 2.345,1.54 0.9975,0.9975 1.5575,2.485 0.56,1.47 0.56,3.36 0,0.735 -0.1575,0.98 -0.1575,0.245 -0.595,0.245 l -11.8475,0 q 0.035,1.68 0.455,2.9225 0.42,1.2425 1.155,2.0825 0.735,0.8225 1.75,1.2425 1.015,0.4025 2.275,0.4025 1.1725,0 2.0125,-0.2625 0.8575,-0.28 1.47,-0.595 0.6125,-0.315 1.015,-0.5775 0.42,-0.28 0.7175,-0.28 0.385,0 0.595,0.2975 l 0.875,1.1375 q -0.5775,0.7 -1.3825,1.225 -0.805,0.5075 -1.7325,0.84 -0.91,0.3325 -1.89,0.49 -0.98,0.175 -1.9425,0.175 -1.8375,0 -3.395,-0.6125 -1.54,-0.63 -2.6775,-1.82 -1.12,-1.2075 -1.75,-2.975 -0.63,-1.7675 -0.63,-4.06 0,-1.855 0.56,-3.465 0.5775,-1.61 1.645,-2.7825 1.0675,-1.19 2.6075,-1.855 1.54,-0.6825 3.465,-0.6825 z m 0.07,2.2925 q -2.2575,0 -3.5525,1.3125 -1.295,1.295 -1.61,3.605 l 9.695,0 q 0,-1.085 -0.315,-1.9775 -0.2975,-0.91 -0.8925,-1.5575 -0.5775,-0.665 -1.4175,-1.015 -0.84,-0.3675 -1.9075,-0.3675 z m 5.0925,-9.6425 -4.0775,4.515 q -0.245,0.2625 -0.49,0.385 -0.2275,0.105 -0.595,0.105 l -1.855,0 2.59,-4.235 q 0.245,-0.4025 0.525,-0.5775 0.2975,-0.1925 0.8575,-0.1925 l 3.045,0 z"
         style=""
         id="path4296" />
      <path
         d="m 826.60428,161.37695 -2.625,0 q -0.455,0 -0.735,-0.2275 -0.28,-0.2275 -0.42,-0.5775 l -2.345,-6.055 -11.2525,0 -2.345,6.055 q -0.105,0.315 -0.4025,0.56 -0.2975,0.245 -0.735,0.245 l -2.625,0 10.0275,-25.0775 3.43,0 10.0275,25.0775 z m -16.4325,-9.31 9.3625,0 -3.9375,-10.2025 q -0.1925,-0.455 -0.385,-1.05 -0.175,-0.595 -0.3675,-1.2775 -0.175,0.6825 -0.3675,1.295 -0.175,0.595 -0.3675,1.05 l -3.9375,10.185 z"
         style=""
         id="path4298" />
      <path
         d="m 829.20249,161.37695 0,-17.7275 1.785,0 q 0.5075,0 0.7,0.1925 0.1925,0.1925 0.2625,0.665 l 0.1925,2.695 q 0.84,-1.82 2.065,-2.835 1.2425,-1.0325 3.01,-1.0325 0.56,0 1.0675,0.1225 0.525,0.1225 0.9275,0.385 l -0.2275,2.3275 q -0.105,0.4375 -0.525,0.4375 -0.245,0 -0.7175,-0.105 -0.4725,-0.105 -1.0675,-0.105 -0.84,0 -1.505,0.2625 -0.665,0.245 -1.19,0.735 -0.5075,0.4725 -0.91,1.1725 -0.4025,0.7 -0.735,1.61 l 0,11.2 -3.1325,0 z"
         style=""
         id="path4300" />
      <path
         d="m 845.20733,143.64945 0,17.7275 -3.115,0 0,-17.7275 3.115,0 z m 0.665,-5.565 q 0,0.455 -0.1925,0.8575 -0.175,0.385 -0.49,0.7 -0.2975,0.2975 -0.7175,0.4725 -0.4025,0.175 -0.8575,0.175 -0.455,0 -0.8575,-0.175 -0.385,-0.175 -0.6825,-0.4725 -0.2975,-0.315 -0.4725,-0.7 -0.175,-0.4025 -0.175,-0.8575 0,-0.455 0.175,-0.8575 0.175,-0.42 0.4725,-0.7175 0.2975,-0.315 0.6825,-0.49 0.4025,-0.175 0.8575,-0.175 0.455,0 0.8575,0.175 0.42,0.175 0.7175,0.49 0.315,0.2975 0.49,0.7175 0.1925,0.4025 0.1925,0.8575 z"
         style=""
         id="path4302" />
      <path
         d="m 855.76803,161.65695 q -2.1,0 -3.2375,-1.1725 -1.12,-1.1725 -1.12,-3.3775 l 0,-10.85 -2.135,0 q -0.28,0 -0.4725,-0.1575 -0.1925,-0.175 -0.1925,-0.525 l 0,-1.2425 2.905,-0.3675 0.7175,-5.4775 q 0.0525,-0.2625 0.2275,-0.42 0.1925,-0.175 0.49,-0.175 l 1.575,0 0,6.1075 5.1275,0 0,2.2575 -5.1275,0 0,10.64 q 0,1.12 0.5425,1.6625 0.5425,0.5425 1.4,0.5425 0.49,0 0.84,-0.1225 0.3675,-0.14 0.63,-0.2975 0.2625,-0.1575 0.4375,-0.28 0.1925,-0.14 0.3325,-0.14 0.245,0 0.4375,0.2975 l 0.91,1.4875 q -0.805,0.7525 -1.9425,1.19 -1.1375,0.42 -2.345,0.42 z"
         style=""
         id="path4304" />
      <path
         d="m 862.90366,161.37695 0,-25.7775 3.1325,0 0,10.43 q 1.1375,-1.2075 2.52,-1.925 1.3825,-0.735 3.185,-0.735 1.4525,0 2.555,0.49 1.12,0.4725 1.855,1.365 0.7525,0.875 1.1375,2.1175 0.385,1.2425 0.385,2.7475 l 0,11.2875 -3.1325,0 0,-11.2875 q 0,-2.0125 -0.9275,-3.115 -0.91,-1.12 -2.7825,-1.12 -1.4,0 -2.6075,0.665 -1.19,0.665 -2.1875,1.8025 l 0,13.055 -3.1325,0 z"
         style=""
         id="path4306" />
      <path
         d="m 882.45444,161.37695 0,-17.7275 1.8725,0 q 0.665,0 0.8225,0.6475 l 0.2275,1.82 q 0.98,-1.2075 2.205,-1.9775 1.225,-0.77 2.835,-0.77 1.785,0 2.8875,0.9975 1.12,0.9975 1.61,2.695 0.385,-0.9625 0.98,-1.6625 0.6125,-0.7 1.365,-1.155 0.7525,-0.455 1.5925,-0.665 0.8575,-0.21 1.7325,-0.21 1.4,0 2.485,0.455 1.1025,0.4375 1.855,1.295 0.77,0.8575 1.1725,2.1175 0.4025,1.2425 0.4025,2.8525 l 0,11.2875 -3.1325,0 0,-11.2875 q 0,-2.0825 -0.91,-3.15 -0.91,-1.085 -2.625,-1.085 -0.77,0 -1.47,0.28 -0.6825,0.2625 -1.2075,0.7875 -0.525,0.525 -0.84,1.33 -0.2975,0.7875 -0.2975,1.8375 l 0,11.2875 -3.1325,0 0,-11.2875 q 0,-2.135 -0.8575,-3.185 -0.8575,-1.05 -2.5025,-1.05 -1.155,0 -2.135,0.63 -0.98,0.6125 -1.8025,1.68 l 0,13.2125 -3.1325,0 z"
         style=""
         id="path4308" />
      <path
         d="m 910.21874,161.37695 0,0 z m 8.2775,-18.0075 q 1.5925,0 2.94,0.5425 1.365,0.525 2.345,1.54 0.9975,0.9975 1.5575,2.485 0.56,1.47 0.56,3.36 0,0.735 -0.1575,0.98 -0.1575,0.245 -0.595,0.245 l -11.8475,0 q 0.035,1.68 0.455,2.9225 0.42,1.2425 1.155,2.0825 0.735,0.8225 1.75,1.2425 1.015,0.4025 2.275,0.4025 1.1725,0 2.0125,-0.2625 0.8575,-0.28 1.47,-0.595 0.6125,-0.315 1.015,-0.5775 0.42,-0.28 0.7175,-0.28 0.385,0 0.595,0.2975 l 0.875,1.1375 q -0.5775,0.7 -1.3825,1.225 -0.805,0.5075 -1.7325,0.84 -0.91,0.3325 -1.89,0.49 -0.98,0.175 -1.9425,0.175 -1.8375,0 -3.395,-0.6125 -1.54,-0.63 -2.6775,-1.82 -1.12,-1.2075 -1.75,-2.975 -0.63,-1.7675 -0.63,-4.06 0,-1.855 0.56,-3.465 0.5775,-1.61 1.645,-2.7825 1.0675,-1.19 2.6075,-1.855 1.54,-0.6825 3.465,-0.6825 z m 0.07,2.2925 q -2.2575,0 -3.5525,1.3125 -1.295,1.295 -1.61,3.605 l 9.695,0 q 0,-1.085 -0.315,-1.9775 -0.2975,-0.91 -0.8925,-1.5575 -0.5775,-0.665 -1.4175,-1.015 -0.84,-0.3675 -1.9075,-0.3675 z m 5.0925,-9.6425 -4.0775,4.515 q -0.245,0.2625 -0.49,0.385 -0.2275,0.105 -0.595,0.105 l -1.855,0 2.59,-4.235 q 0.245,-0.4025 0.525,-0.5775 0.2975,-0.1925 0.8575,-0.1925 l 3.045,0 z"
         style=""
         id="path4310" />
      <path
         d="m 927.77069,161.37695 0,0 z m 7.1575,0.28 q -2.1,0 -3.2375,-1.1725 -1.12,-1.1725 -1.12,-3.3775 l 0,-10.85 -2.135,0 q -0.28,0 -0.4725,-0.1575 -0.1925,-0.175 -0.1925,-0.525 l 0,-1.2425 2.905,-0.3675 0.7175,-5.4775 q 0.0525,-0.2625 0.2275,-0.42 0.1925,-0.175 0.49,-0.175 l 1.575,0 0,6.1075 12.25,0 0,17.3775 -3.115,0 0,-15.12 -9.135,0 0,10.64 q 0,1.12 0.5425,1.6625 0.5425,0.5425 1.4,0.5425 0.49,0 0.84,-0.1225 0.3675,-0.14 0.63,-0.2975 0.2625,-0.1575 0.4375,-0.28 0.1925,-0.14 0.3325,-0.14 0.245,0 0.4375,0.2975 l 0.91,1.4875 q -0.805,0.7525 -1.9425,1.19 -1.1375,0.42 -2.345,0.42 z m 11.7775,-23.695 q 0,0.455 -0.1925,0.8575 -0.175,0.385 -0.49,0.6825 -0.2975,0.2975 -0.7,0.4725 -0.4025,0.175 -0.8575,0.175 -0.455,0 -0.8575,-0.175 -0.385,-0.175 -0.6825,-0.4725 -0.2975,-0.2975 -0.4725,-0.6825 -0.175,-0.4025 -0.175,-0.8575 0,-0.455 0.175,-0.8575 0.175,-0.42 0.4725,-0.7175 0.2975,-0.315 0.6825,-0.49 0.4025,-0.175 0.8575,-0.175 0.455,0 0.8575,0.175 0.4025,0.175 0.7,0.49 0.315,0.2975 0.49,0.7175 0.1925,0.4025 0.1925,0.8575 z"
         style=""
         id="path4312" />
      <path
         d="m 965.68389,143.64945 0,23.73 -3.115,0 0,-8.6275 q -1.12,1.295 -2.555,2.0825 -1.4175,0.7875 -3.255,0.7875 -1.5225,0 -2.765,-0.5775 -1.2425,-0.595 -2.1175,-1.7325 -0.875,-1.1375 -1.3475,-2.835 -0.4725,-1.6975 -0.4725,-3.9025 0,-1.96 0.525,-3.64 0.525,-1.6975 1.505,-2.94 0.98,-1.2425 2.3975,-1.9425 1.435,-0.7175 3.22,-0.7175 1.7325,0 2.9225,0.6125 1.2075,0.6125 2.1525,1.7325 l 0.21,-1.3825 q 0.175,-0.6475 0.84,-0.6475 l 1.855,0 z m -7.91,15.4525 q 1.54,0 2.6775,-0.7 1.155,-0.7 2.1175,-1.9775 l 0,-8.575 q -0.84,-1.12 -1.8725,-1.5925 -1.0325,-0.49 -2.2925,-0.49 -2.4675,0 -3.7975,1.7675 -1.33,1.7675 -1.33,5.04 0,1.7325 0.2975,2.975 0.2975,1.225 0.875,2.03 0.5775,0.7875 1.4175,1.155 0.84,0.3675 1.9075,0.3675 z"
         style=""
         id="path4314" />
      <path
         d="m 973.57803,143.64945 0,11.305 q 0,2.0125 0.91,3.115 0.9275,1.1025 2.8175,1.1025 1.365,0 2.5725,-0.6475 1.2075,-0.6475 2.2225,-1.8025 l 0,-13.0725 3.115,0 0,17.7275 -1.855,0 q -0.665,0 -0.84,-0.6475 l -0.245,-1.9075 q -1.155,1.2775 -2.59,2.065 -1.435,0.77 -3.29,0.77 -1.4525,0 -2.5725,-0.4725 -1.1025,-0.49 -1.855,-1.365 -0.7525,-0.875 -1.1375,-2.1175 -0.3675,-1.2425 -0.3675,-2.7475 l 0,-11.305 3.115,0 z"
         style=""
         id="path4316" />
      <path
         d="m 997.38295,143.36945 q 1.5925,0 2.94005,0.5425 1.365,0.525 2.345,1.54 0.9975,0.9975 1.5575,2.485 0.56,1.47 0.56,3.36 0,0.735 -0.1575,0.98 -0.1575,0.245 -0.595,0.245 l -11.84755,0 q 0.035,1.68 0.455,2.9225 0.42,1.2425 1.155,2.0825 0.735,0.8225 1.75,1.2425 1.015,0.4025 2.275,0.4025 1.1725,0 2.0125,-0.2625 0.85755,-0.28 1.47005,-0.595 0.6125,-0.315 1.015,-0.5775 0.42,-0.28 0.7175,-0.28 0.385,0 0.595,0.2975 l 0.875,1.1375 q -0.5775,0.7 -1.3825,1.225 -0.805,0.5075 -1.7325,0.84 -0.91,0.3325 -1.89005,0.49 -0.98,0.175 -1.9425,0.175 -1.8375,0 -3.395,-0.6125 -1.54,-0.63 -2.6775,-1.82 -1.12,-1.2075 -1.75,-2.975 -0.63,-1.7675 -0.63,-4.06 0,-1.855 0.56,-3.465 0.5775,-1.61 1.645,-2.7825 1.0675,-1.19 2.6075,-1.855 1.54,-0.6825 3.465,-0.6825 z m 0.07,2.2925 q -2.2575,0 -3.5525,1.3125 -1.295,1.295 -1.61,3.605 l 9.69505,0 q 0,-1.085 -0.315,-1.9775 -0.2975,-0.91 -0.8925,-1.5575 -0.5775,-0.665 -1.41755,-1.015 -0.84,-0.3675 -1.9075,-0.3675 z"
         style=""
         id="path4318" />
    </g>
    <g
       style="font-style:normal;font-variant:normal;font-weight:normal;font-stretch:normal;font-size:35px;line-height:125%;font-family:Lato;-inkscape-font-specification:'Lato, Normal';text-align:start;letter-spacing:0px;word-spacing:0px;writing-mode:lr-tb;text-anchor:start;fill:#859900;fill-opacity:0.93333333;stroke:none;stroke-width:1px;stroke-linecap:butt;stroke-linejoin:miter;stroke-opacity:1"
       id="text6092">
      <path
         d="m 805.31389,233.52445 10.85,0 0,2.8525 -14.2275,0 0,-25.0775 3.3775,0 0,22.225 z"
         style=""
         id="path4270" />
      <path
         d="m 825.35357,218.36945 q 1.9425,0 3.5,0.6475 1.5575,0.6475 2.66,1.8375 1.1025,1.19 1.68,2.8875 0.595,1.68 0.595,3.7625 0,2.1 -0.595,3.78 -0.5775,1.68 -1.68,2.87 -1.1025,1.19 -2.66,1.8375 -1.5575,0.63 -3.5,0.63 -1.96,0 -3.535,-0.63 -1.5575,-0.6475 -2.66,-1.8375 -1.1025,-1.19 -1.6975,-2.87 -0.5775,-1.68 -0.5775,-3.78 0,-2.0825 0.5775,-3.7625 0.595,-1.6975 1.6975,-2.8875 1.1025,-1.19 2.66,-1.8375 1.575,-0.6475 3.535,-0.6475 z m 0,15.82 q 2.625,0 3.92,-1.75 1.295,-1.7675 1.295,-4.9175 0,-3.1675 -1.295,-4.935 -1.295,-1.7675 -3.92,-1.7675 -1.33,0 -2.3275,0.455 -0.98,0.455 -1.645,1.3125 -0.6475,0.8575 -0.98,2.1175 -0.315,1.2425 -0.315,2.8175 0,3.15 1.295,4.9175 1.3125,1.75 3.9725,1.75 z"
         style=""
         id="path4272" />
      <path
         d="m 843.88279,218.35195 q 1.155,0 2.1525,0.2625 0.9975,0.245 1.82,0.735 l 4.8125,0 0,1.155 q 0,0.5775 -0.735,0.735 l -2.0125,0.28 q 0.595,1.1375 0.595,2.5375 0,1.295 -0.5075,2.3625 -0.49,1.05 -1.365,1.8025 -0.875,0.7525 -2.1,1.155 -1.225,0.4025 -2.66,0.4025 -1.26,0 -2.3625,-0.2975 -0.56,0.35 -0.8575,0.7525 -0.28,0.4025 -0.28,0.7875 0,0.63 0.5075,0.9625 0.525,0.315 1.365,0.455 0.84,0.14 1.9075,0.175 1.085,0.035 2.205,0.1225 1.1375,0.07 2.205,0.2625 1.085,0.1925 1.925,0.63 0.84,0.4375 1.3475,1.2075 0.525,0.77 0.525,1.995 0,1.1375 -0.5775,2.205 -0.56,1.0675 -1.6275,1.89 -1.0675,0.84 -2.625,1.33 -1.54,0.5075 -3.4825,0.5075 -1.9425,0 -3.395,-0.385 -1.4525,-0.385 -2.415,-1.0325 -0.9625,-0.6475 -1.4525,-1.505 -0.4725,-0.84 -0.4725,-1.7675 0,-1.3125 0.8225,-2.2225 0.8225,-0.91 2.24,-1.4525 -0.7875,-0.35 -1.2425,-0.9275 -0.455,-0.595 -0.455,-1.5925 0,-0.385 0.14,-0.7875 0.14,-0.42 0.42,-0.8225 0.2975,-0.4025 0.7175,-0.77 0.42,-0.3675 0.98,-0.6475 -1.3125,-0.735 -2.0475,-1.96 -0.735,-1.225 -0.735,-2.835 0,-1.295 0.49,-2.345 0.5075,-1.0675 1.4,-1.8025 0.8925,-0.7525 2.1175,-1.155 1.2425,-0.4025 2.7125,-0.4025 z m 5.6175,18.9875 q 0,-0.6475 -0.3675,-1.05 -0.3675,-0.4025 -0.9975,-0.63 -0.6125,-0.2275 -1.435,-0.315 -0.8225,-0.105 -1.75,-0.1575 -0.91,-0.0525 -1.855,-0.105 -0.945,-0.0525 -1.82,-0.175 -0.98,0.455 -1.61,1.1375 -0.6125,0.6825 -0.6125,1.6275 0,0.595 0.2975,1.1025 0.315,0.525 0.945,0.8925 0.63,0.385 1.575,0.595 0.9625,0.2275 2.2575,0.2275 1.26,0 2.2575,-0.2275 0.9975,-0.2275 1.68,-0.6475 0.7,-0.42 1.0675,-0.9975 0.3675,-0.5775 0.3675,-1.2775 z m -5.6175,-9.625 q 0.945,0 1.6625,-0.2625 0.7175,-0.2625 1.2075,-0.735 0.49,-0.4725 0.735,-1.12 0.245,-0.665 0.245,-1.4525 0,-1.6275 -0.9975,-2.59 -0.98,-0.9625 -2.8525,-0.9625 -1.89,0 -2.8875,0.9625 -0.98,0.9625 -0.98,2.59 0,0.7875 0.245,1.4525 0.2625,0.6475 0.7525,1.12 0.49,0.4725 1.2075,0.735 0.7175,0.2625 1.6625,0.2625 z"
         style=""
         id="path4274" />
      <path
         d="m 859.17889,218.64945 0,17.7275 -3.115,0 0,-17.7275 3.115,0 z m 0.665,-5.565 q 0,0.455 -0.1925,0.8575 -0.175,0.385 -0.49,0.7 -0.2975,0.2975 -0.7175,0.4725 -0.4025,0.175 -0.8575,0.175 -0.455,0 -0.8575,-0.175 -0.385,-0.175 -0.6825,-0.4725 -0.2975,-0.315 -0.4725,-0.7 -0.175,-0.4025 -0.175,-0.8575 0,-0.455 0.175,-0.8575 0.175,-0.42 0.4725,-0.7175 0.2975,-0.315 0.6825,-0.49 0.4025,-0.175 0.8575,-0.175 0.455,0 0.8575,0.175 0.42,0.175 0.7175,0.49 0.315,0.2975 0.49,0.7175 0.1925,0.4025 0.1925,0.8575 z"
         style=""
         id="path4276" />
      <path
         d="m 878.96209,218.64945 0,23.73 -3.115,0 0,-8.6275 q -1.12,1.295 -2.555,2.0825 -1.4175,0.7875 -3.255,0.7875 -1.5225,0 -2.765,-0.5775 -1.2425,-0.595 -2.1175,-1.7325 -0.875,-1.1375 -1.3475,-2.835 -0.4725,-1.6975 -0.4725,-3.9025 0,-1.96 0.525,-3.64 0.525,-1.6975 1.505,-2.94 0.98,-1.2425 2.3975,-1.9425 1.435,-0.7175 3.22,-0.7175 1.7325,0 2.9225,0.6125 1.2075,0.6125 2.1525,1.7325 l 0.21,-1.3825 q 0.175,-0.6475 0.84,-0.6475 l 1.855,0 z m -7.91,15.4525 q 1.54,0 2.6775,-0.7 1.155,-0.7 2.1175,-1.9775 l 0,-8.575 q -0.84,-1.12 -1.8725,-1.5925 -1.0325,-0.49 -2.2925,-0.49 -2.4675,0 -3.7975,1.7675 -1.33,1.7675 -1.33,5.04 0,1.7325 0.2975,2.975 0.2975,1.225 0.875,2.03 0.5775,0.7875 1.4175,1.155 0.84,0.3675 1.9075,0.3675 z"
         style=""
         id="path4278" />
      <path
         d="m 886.85623,218.64945 0,11.305 q 0,2.0125 0.91,3.115 0.9275,1.1025 2.8175,1.1025 1.365,0 2.5725,-0.6475 1.2075,-0.6475 2.2225,-1.8025 l 0,-13.0725 3.115,0 0,17.7275 -1.855,0 q -0.665,0 -0.84,-0.6475 l -0.245,-1.9075 q -1.155,1.2775 -2.59,2.065 -1.435,0.77 -3.29,0.77 -1.4525,0 -2.5725,-0.4725 -1.1025,-0.49 -1.855,-1.365 -0.7525,-0.875 -1.1375,-2.1175 -0.3675,-1.2425 -0.3675,-2.7475 l 0,-11.305 3.115,0 z"
         style=""
         id="path4280" />
      <path
         d="m 910.66115,218.36945 q 1.5925,0 2.94,0.5425 1.365,0.525 2.345,1.54 0.9975,0.9975 1.5575,2.485 0.56,1.47 0.56,3.36 0,0.735 -0.1575,0.98 -0.1575,0.245 -0.595,0.245 l -11.8475,0 q 0.035,1.68 0.455,2.9225 0.42,1.2425 1.155,2.0825 0.735,0.8225 1.75,1.2425 1.015,0.4025 2.275,0.4025 1.1725,0 2.0125,-0.2625 0.8575,-0.28 1.47,-0.595 0.6125,-0.315 1.015,-0.5775 0.42,-0.28 0.7175,-0.28 0.385,0 0.595,0.2975 l 0.875,1.1375 q -0.5775,0.7 -1.3825,1.225 -0.805,0.5075 -1.7325,0.84 -0.91,0.3325 -1.89,0.49 -0.98,0.175 -1.9425,0.175 -1.8375,0 -3.395,-0.6125 -1.54,-0.63 -2.6775,-1.82 -1.12,-1.2075 -1.75,-2.975 -0.63,-1.7675 -0.63,-4.06 0,-1.855 0.56,-3.465 0.5775,-1.61 1.645,-2.7825 1.0675,-1.19 2.6075,-1.855 1.54,-0.6825 3.465,-0.6825 z m 0.07,2.2925 q -2.2575,0 -3.5525,1.3125 -1.295,1.295 -1.61,3.605 l 9.695,0 q 0,-1.085 -0.315,-1.9775 -0.2975,-0.91 -0.8925,-1.5575 -0.5775,-0.665 -1.4175,-1.015 -0.84,-0.3675 -1.9075,-0.3675 z"
         style=""
         id="path4282" />
    </g>
    <g
       style="font-style:normal;font-variant:normal;font-weight:normal;font-stretch:normal;font-size:35px;line-height:125%;font-family:Lato;-inkscape-font-specification:'Lato, Normal';text-align:start;letter-spacing:0px;word-spacing:0px;writing-mode:lr-tb;text-anchor:start;fill:#859900;fill-opacity:0.93333333;stroke:none;stroke-width:1px;stroke-linecap:butt;stroke-linejoin:miter;stroke-opacity:0.93333333"
       id="text6096">
      <path
         d="m 858.59126,176.2538 q 1.3825,0 2.52,0.455 1.1375,0.4375 1.96,1.1725 0.8225,0.735 1.295,1.715 0.49,0.9625 0.56,2.0125 l -1.9425,0.385 q -0.5775,0.14 -0.8575,-0.5425 -0.1225,-0.455 -0.4025,-0.945 -0.2625,-0.49 -0.7,-0.8925 -0.42,-0.4025 -1.0325,-0.665 -0.595,-0.2625 -1.4,-0.2625 -0.875,0 -1.5925,0.28 -0.7,0.28 -1.2075,0.7875 -0.49,0.49 -0.7525,1.1725 -0.2625,0.665 -0.2625,1.4525 0,0.6125 0.14,1.1725 0.14,0.56 0.4375,1.1375 0.315,0.5775 0.7875,1.1725 0.4725,0.595 1.1375,1.26 l 7.21,7.3325 q 0.665,-1.19 1.05,-2.4675 0.4025,-1.2775 0.5425,-2.5725 0.035,-0.3325 0.21,-0.525 0.175,-0.1925 0.49,-0.1925 l 1.9075,0 q -0.0175,2.0125 -0.6475,3.955 -0.6125,1.925 -1.75,3.6225 l 5.25,5.3375 -3.0275,0 q -0.5075,0 -0.8225,-0.1225 -0.315,-0.1225 -0.6825,-0.5075 l -2.5375,-2.5375 q -1.645,1.5925 -3.7975,2.52 -2.135,0.9275 -4.7075,0.9275 -1.4,0 -2.7475,-0.4725 -1.33,-0.4725 -2.3975,-1.365 -1.0675,-0.91 -1.715,-2.205 -0.6475,-1.295 -0.6475,-2.9225 0,-1.225 0.4025,-2.31 0.42,-1.1025 1.1375,-2.03 0.735,-0.9275 1.7325,-1.6625 1.015,-0.735 2.205,-1.26 -1.085,-1.3475 -1.5925,-2.625 -0.49,-1.2775 -0.49,-2.6425 0,-1.2775 0.455,-2.3975 0.4725,-1.12 1.3475,-1.9425 0.875,-0.84 2.1175,-1.3125 1.26,-0.49 2.8175,-0.49 z m -2.0825,23.1 q 1.96,0 3.5175,-0.7175 1.5575,-0.7175 2.7475,-1.9075 l -7.4025,-7.4725 q -1.855,0.9975 -2.8,2.3975 -0.9275,1.3825 -0.9275,3.0275 0,1.1375 0.42,2.0125 0.42,0.8575 1.1025,1.4525 0.6825,0.595 1.5575,0.91 0.875,0.2975 1.785,0.2975 z"
         style=""
         id="path4285" />
    </g>
    <g
       style="font-style:normal;font-variant:normal;font-weight:normal;font-stretch:normal;font-size:35px;line-height:125%;font-family:Lato;-inkscape-font-specification:'Lato, Normal';text-align:start;letter-spacing:0px;word-spacing:0px;writing-mode:lr-tb;text-anchor:start;fill:#859900;fill-opacity:0.93333333;stroke:none;stroke-width:1px;stroke-linecap:butt;stroke-linejoin:miter;stroke-opacity:0.93333333"
       id="text6070">
      <path
         d="m 489.98913,179.08967 q 1.5575,0 2.7825,-0.525 1.225,-0.525 2.065,-1.47 0.8575,-0.945 1.295,-2.2575 0.455,-1.3125 0.455,-2.8875 l 0,-15.2425 3.3775,0 0,15.2425 q 0,2.17 -0.7,4.025 -0.6825,1.855 -1.9775,3.22 -1.2775,1.3475 -3.1325,2.1175 -1.855,0.77 -4.165,0.77 -2.31,0 -4.165,-0.77 -1.855,-0.77 -3.15,-2.1175 -1.295,-1.365 -1.995,-3.22 -0.6825,-1.855 -0.6825,-4.025 l 0,-15.2425 3.3775,0 0,15.225 q 0,1.575 0.4375,2.8875 0.455,1.3125 1.295,2.2575 0.8575,0.945 2.0825,1.4875 1.2425,0.525 2.8,0.525 z"
         style=""
         id="path4342" />
      <path
         d="m 504.80124,181.78467 0,-17.7275 1.8725,0 q 0.665,0 0.8225,0.6475 l 0.245,1.925 q 1.155,-1.2775 2.59,-2.065 1.435,-0.7875 3.3075,-0.7875 1.4525,0 2.555,0.49 1.12,0.4725 1.855,1.365 0.7525,0.875 1.1375,2.1175 0.385,1.2425 0.385,2.7475 l 0,11.2875 -3.1325,0 0,-11.2875 q 0,-2.0125 -0.9275,-3.115 -0.91,-1.12 -2.7825,-1.12 -1.4,0 -2.6075,0.665 -1.19,0.665 -2.1875,1.8025 l 0,13.055 -3.1325,0 z"
         style=""
         id="path4344" />
      <path
         d="m 527.64202,164.05717 0,17.7275 -3.115,0 0,-17.7275 3.115,0 z m 0.665,-5.565 q 0,0.455 -0.1925,0.8575 -0.175,0.385 -0.49,0.7 -0.2975,0.2975 -0.7175,0.4725 -0.4025,0.175 -0.8575,0.175 -0.455,0 -0.8575,-0.175 -0.385,-0.175 -0.6825,-0.4725 -0.2975,-0.315 -0.4725,-0.7 -0.175,-0.4025 -0.175,-0.8575 0,-0.455 0.175,-0.8575 0.175,-0.42 0.4725,-0.7175 0.2975,-0.315 0.6825,-0.49 0.4025,-0.175 0.8575,-0.175 0.455,0 0.8575,0.175 0.42,0.175 0.7175,0.49 0.315,0.2975 0.49,0.7175 0.1925,0.4025 0.1925,0.8575 z"
         style=""
         id="path4346" />
      <path
         d="m 538.20272,182.06467 q -2.1,0 -3.2375,-1.1725 -1.12,-1.1725 -1.12,-3.3775 l 0,-10.85 -2.135,0 q -0.28,0 -0.4725,-0.1575 -0.1925,-0.175 -0.1925,-0.525 l 0,-1.2425 2.905,-0.3675 0.7175,-5.4775 q 0.0525,-0.2625 0.2275,-0.42 0.1925,-0.175 0.49,-0.175 l 1.575,0 0,6.1075 5.1275,0 0,2.2575 -5.1275,0 0,10.64 q 0,1.12 0.5425,1.6625 0.5425,0.5425 1.4,0.5425 0.49,0 0.84,-0.1225 0.3675,-0.14 0.63,-0.2975 0.2625,-0.1575 0.4375,-0.28 0.1925,-0.14 0.3325,-0.14 0.245,0 0.4375,0.2975 l 0.91,1.4875 q -0.805,0.7525 -1.9425,1.19 -1.1375,0.42 -2.345,0.42 z"
         style=""
         id="path4348" />
      <path
         d="m 544.32335,181.78467 0,0 z m 8.2775,-18.0075 q 1.5925,0 2.94,0.5425 1.365,0.525 2.345,1.54 0.9975,0.9975 1.5575,2.485 0.56,1.47 0.56,3.36 0,0.735 -0.1575,0.98 -0.1575,0.245 -0.595,0.245 l -11.8475,0 q 0.035,1.68 0.455,2.9225 0.42,1.2425 1.155,2.0825 0.735,0.8225 1.75,1.2425 1.015,0.4025 2.275,0.4025 1.1725,0 2.0125,-0.2625 0.8575,-0.28 1.47,-0.595 0.6125,-0.315 1.015,-0.5775 0.42,-0.28 0.7175,-0.28 0.385,0 0.595,0.2975 l 0.875,1.1375 q -0.5775,0.7 -1.3825,1.225 -0.805,0.5075 -1.7325,0.84 -0.91,0.3325 -1.89,0.49 -0.98,0.175 -1.9425,0.175 -1.8375,0 -3.395,-0.6125 -1.54,-0.63 -2.6775,-1.82 -1.12,-1.2075 -1.75,-2.975 -0.63,-1.7675 -0.63,-4.06 0,-1.855 0.56,-3.465 0.5775,-1.61 1.645,-2.7825 1.0675,-1.19 2.6075,-1.855 1.54,-0.6825 3.465,-0.6825 z m 0.07,2.2925 q -2.2575,0 -3.5525,1.3125 -1.295,1.295 -1.61,3.605 l 9.695,0 q 0,-1.085 -0.315,-1.9775 -0.2975,-0.91 -0.8925,-1.5575 -0.5775,-0.665 -1.4175,-1.015 -0.84,-0.3675 -1.9075,-0.3675 z m 5.0925,-9.6425 -4.0775,4.515 q -0.245,0.2625 -0.49,0.385 -0.2275,0.105 -0.595,0.105 l -1.855,0 2.59,-4.235 q 0.245,-0.4025 0.525,-0.5775 0.2975,-0.1925 0.8575,-0.1925 l 3.045,0 z"
         style=""
         id="path4350" />
    </g>
    <g
       style="font-style:normal;font-variant:normal;font-weight:normal;font-stretch:normal;font-size:35px;line-height:125%;font-family:Lato;-inkscape-font-specification:'Lato, Normal';text-align:start;letter-spacing:0px;word-spacing:0px;writing-mode:lr-tb;text-anchor:start;fill:#859900;fill-opacity:0.93333333;stroke:none;stroke-width:1px;stroke-linecap:butt;stroke-linejoin:miter;stroke-opacity:0.93333333"
       id="text6100">
      <path
         d="m 446.13086,221.78467 q -0.665,0 -0.84,-0.6475 l -0.28,-2.1525 q -1.1375,1.3825 -2.6075,2.2225 -1.4525,0.8225 -3.3425,0.8225 -1.5225,0 -2.765,-0.5775 -1.2425,-0.595 -2.1175,-1.7325 -0.875,-1.1375 -1.3475,-2.835 -0.4725,-1.6975 -0.4725,-3.9025 0,-1.96 0.525,-3.64 0.525,-1.6975 1.505,-2.94 0.98,-1.2425 2.3975,-1.9425 1.435,-0.7175 3.22,-0.7175 1.6275,0 2.7825,0.56 1.1725,0.5425 2.0825,1.54 l 0,-9.835 3.115,0 0,25.7775 -1.855,0 z m -6.055,-2.275 q 1.54,0 2.6775,-0.7 1.155,-0.7 2.1175,-1.9775 l 0,-8.5575 q -0.875,-1.155 -1.89,-1.6275 -1.015,-0.4725 -2.275,-0.4725 -2.4675,0 -3.7975,1.7675 -1.33,1.7675 -1.33,5.04 0,1.7325 0.2975,2.975 0.2975,1.225 0.875,2.03 0.5775,0.7875 1.4175,1.155 0.84,0.3675 1.9075,0.3675 z"
         style=""
         id="path4321" />
      <path
         d="m 455.4075,196.70717 0,5.075 -0.28,2.7125 q -0.0875,0.56 -0.3325,0.875 -0.2275,0.2975 -0.7525,0.2975 -0.4725,0 -0.735,-0.2975 -0.245,-0.315 -0.3325,-0.875 l -0.28,-2.7125 0,-5.075 2.7125,0 z"
         style=""
         id="path4323" />
      <path
         d="m 476.23688,196.70717 0,2.765 -12.0575,0 0,8.33 9.765,0 0,2.66 -9.765,0 0,8.5575 12.075,0 -0.0175,2.765 -15.4525,0 0,-25.0775 15.4525,0 z"
         style=""
         id="path4325" />
      <path
         d="m 484.43125,212.70217 -5.9675,-8.645 2.9925,0 q 0.385,0 0.56,0.1225 0.175,0.1225 0.315,0.35 l 4.34,6.65 q 0.1575,-0.49 0.455,-0.98 l 3.815,-5.6 q 0.1575,-0.245 0.3325,-0.385 0.1925,-0.1575 0.455,-0.1575 l 2.87,0 -5.9675,8.47 6.2125,9.2575 -2.9925,0 q -0.385,0 -0.6125,-0.1925 -0.21,-0.21 -0.35,-0.455 l -4.4625,-6.9475 q -0.1225,0.5075 -0.3675,0.91 l -4.13,6.0375 q -0.175,0.245 -0.385,0.455 -0.1925,0.1925 -0.5425,0.1925 l -2.7825,0 6.2125,-9.0825 z"
         style=""
         id="path4327" />
      <path
         d="m 495.88008,221.78467 0,0 z m 8.2775,-18.0075 q 1.5925,0 2.94,0.5425 1.365,0.525 2.345,1.54 0.9975,0.9975 1.5575,2.485 0.56,1.47 0.56,3.36 0,0.735 -0.1575,0.98 -0.1575,0.245 -0.595,0.245 l -11.8475,0 q 0.035,1.68 0.455,2.9225 0.42,1.2425 1.155,2.0825 0.735,0.8225 1.75,1.2425 1.015,0.4025 2.275,0.4025 1.1725,0 2.0125,-0.2625 0.8575,-0.28 1.47,-0.595 0.6125,-0.315 1.015,-0.5775 0.42,-0.28 0.7175,-0.28 0.385,0 0.595,0.2975 l 0.875,1.1375 q -0.5775,0.7 -1.3825,1.225 -0.805,0.5075 -1.7325,0.84 -0.91,0.3325 -1.89,0.49 -0.98,0.175 -1.9425,0.175 -1.8375,0 -3.395,-0.6125 -1.54,-0.63 -2.6775,-1.82 -1.12,-1.2075 -1.75,-2.975 -0.63,-1.7675 -0.63,-4.06 0,-1.855 0.56,-3.465 0.5775,-1.61 1.645,-2.7825 1.0675,-1.19 2.6075,-1.855 1.54,-0.6825 3.465,-0.6825 z m 0.07,2.2925 q -2.2575,0 -3.5525,1.3125 -1.295,1.295 -1.61,3.605 l 9.695,0 q 0,-1.085 -0.315,-1.9775 -0.2975,-0.91 -0.8925,-1.5575 -0.5775,-0.665 -1.4175,-1.015 -0.84,-0.3675 -1.9075,-0.3675 z m 5.0925,-9.6425 -4.0775,4.515 q -0.245,0.2625 -0.49,0.385 -0.2275,0.105 -0.595,0.105 l -1.855,0 2.59,-4.235 q 0.245,-0.4025 0.525,-0.5775 0.2975,-0.1925 0.8575,-0.1925 l 3.045,0 z"
         style=""
         id="path4329" />
      <path
         d="m 527.68961,207.20717 q -0.14,0.1925 -0.28,0.2975 -0.14,0.105 -0.385,0.105 -0.2625,0 -0.5775,-0.21 -0.315,-0.2275 -0.7875,-0.49 -0.455,-0.2625 -1.1375,-0.4725 -0.665,-0.2275 -1.645,-0.2275 -1.3125,0 -2.31,0.4725 -0.9975,0.455 -1.68,1.33 -0.665,0.875 -1.015,2.1175 -0.3325,1.2425 -0.3325,2.7825 0,1.61 0.3675,2.87 0.3675,1.2425 1.0325,2.1 0.6825,0.84 1.6275,1.295 0.9625,0.4375 2.1525,0.4375 1.1375,0 1.8725,-0.2625 0.735,-0.28 1.2075,-0.6125 0.49,-0.3325 0.805,-0.595 0.3325,-0.28 0.6475,-0.28 0.385,0 0.595,0.2975 l 0.875,1.1375 q -0.5775,0.7175 -1.3125,1.225 -0.735,0.5075 -1.5925,0.8575 -0.84,0.3325 -1.7675,0.49 -0.9275,0.1575 -1.89,0.1575 -1.6625,0 -3.0975,-0.6125 -1.4175,-0.6125 -2.4675,-1.7675 -1.05,-1.1725 -1.645,-2.87 -0.595,-1.6975 -0.595,-3.8675 0,-1.9775 0.5425,-3.6575 0.56,-1.68 1.61,-2.8875 1.0675,-1.225 2.6075,-1.9075 1.5575,-0.6825 3.57,-0.6825 1.8725,0 3.29,0.6125 1.435,0.595 2.5375,1.6975 l -0.8225,1.12 z"
         style=""
         id="path4331" />
      <path
         d="m 534.9718,204.05717 0,11.305 q 0,2.0125 0.91,3.115 0.9275,1.1025 2.8175,1.1025 1.365,0 2.5725,-0.6475 1.2075,-0.6475 2.2225,-1.8025 l 0,-13.0725 3.115,0 0,17.7275 -1.855,0 q -0.665,0 -0.84,-0.6475 l -0.245,-1.9075 q -1.155,1.2775 -2.59,2.065 -1.435,0.77 -3.29,0.77 -1.4525,0 -2.5725,-0.4725 -1.1025,-0.49 -1.855,-1.365 -0.7525,-0.875 -1.1375,-2.1175 -0.3675,-1.2425 -0.3675,-2.7475 l 0,-11.305 3.115,0 z"
         style=""
         id="path4333" />
      <path
         d="m 549.79922,221.78467 0,0 z m 7.1575,0.28 q -2.1,0 -3.2375,-1.1725 -1.12,-1.1725 -1.12,-3.3775 l 0,-10.85 -2.135,0 q -0.28,0 -0.4725,-0.1575 -0.1925,-0.175 -0.1925,-0.525 l 0,-1.2425 2.905,-0.3675 0.7175,-5.4775 q 0.0525,-0.2625 0.2275,-0.42 0.1925,-0.175 0.49,-0.175 l 1.575,0 0,6.1075 12.25,0 0,17.3775 -3.115,0 0,-15.12 -9.135,0 0,10.64 q 0,1.12 0.5425,1.6625 0.5425,0.5425 1.4,0.5425 0.49,0 0.84,-0.1225 0.3675,-0.14 0.63,-0.2975 0.2625,-0.1575 0.4375,-0.28 0.1925,-0.14 0.3325,-0.14 0.245,0 0.4375,0.2975 l 0.91,1.4875 q -0.805,0.7525 -1.9425,1.19 -1.1375,0.42 -2.345,0.42 z m 11.7775,-23.695 q 0,0.455 -0.1925,0.8575 -0.175,0.385 -0.49,0.6825 -0.2975,0.2975 -0.7,0.4725 -0.4025,0.175 -0.8575,0.175 -0.455,0 -0.8575,-0.175 -0.385,-0.175 -0.6825,-0.4725 -0.2975,-0.2975 -0.4725,-0.6825 -0.175,-0.4025 -0.175,-0.8575 0,-0.455 0.175,-0.8575 0.175,-0.42 0.4725,-0.7175 0.2975,-0.315 0.6825,-0.49 0.4025,-0.175 0.8575,-0.175 0.455,0 0.8575,0.175 0.4025,0.175 0.7,0.49 0.315,0.2975 0.49,0.7175 0.1925,0.4025 0.1925,0.8575 z"
         style=""
         id="path4335" />
      <path
         d="m 580.51993,203.77717 q 1.9425,0 3.5,0.6475 1.5575,0.6475 2.66,1.8375 1.1025,1.19 1.68,2.8875 0.595,1.68 0.595,3.7625 0,2.1 -0.595,3.78 -0.5775,1.68 -1.68,2.87 -1.1025,1.19 -2.66,1.8375 -1.5575,0.63 -3.5,0.63 -1.96,0 -3.535,-0.63 -1.5575,-0.6475 -2.66,-1.8375 -1.1025,-1.19 -1.6975,-2.87 -0.5775,-1.68 -0.5775,-3.78 0,-2.0825 0.5775,-3.7625 0.595,-1.6975 1.6975,-2.8875 1.1025,-1.19 2.66,-1.8375 1.575,-0.6475 3.535,-0.6475 z m 0,15.82 q 2.625,0 3.92,-1.75 1.295,-1.7675 1.295,-4.9175 0,-3.1675 -1.295,-4.935 -1.295,-1.7675 -3.92,-1.7675 -1.33,0 -2.3275,0.455 -0.98,0.455 -1.645,1.3125 -0.6475,0.8575 -0.98,2.1175 -0.315,1.2425 -0.315,2.8175 0,3.15 1.295,4.9175 1.3125,1.75 3.9725,1.75 z"
         style=""
         id="path4337" />
      <path
         d="m 592.87164,221.78467 0,-17.7275 1.8725,0 q 0.665,0 0.8225,0.6475 l 0.245,1.925 q 1.155,-1.2775 2.59,-2.065 1.435,-0.7875 3.3075,-0.7875 1.4525,0 2.555,0.49 1.12,0.4725 1.855,1.365 0.7525,0.875 1.1375,2.1175 0.385,1.2425 0.385,2.7475 l 0,11.2875 -3.1325,0 0,-11.2875 q 0,-2.0125 -0.9275,-3.115 -0.91,-1.12 -2.7825,-1.12 -1.4,0 -2.6075,0.665 -1.19,0.665 -2.1875,1.8025 l 0,13.055 -3.1325,0 z"
         style=""
         id="path4339" />
    </g>
  </g>
  <g
     inkscape:groupmode="layer"
     id="layer2"
     inkscape:label="frag1"
     style="display:inline">
    <path
       style="fill:none;fill-rule:evenodd;stroke:#dc322f;stroke-width:5;stroke-linecap:butt;stroke-linejoin:miter;stroke-miterlimit:4;stroke-dasharray:none;stroke-opacity:1"
       d="m 667.447,288.87302 -349.24895,0 0,-32.99832 -31.72385,54.94733"
       id="path5807"
       inkscape:connector-curvature="0"
       sodipodi:nodetypes="cccc" />
    <path
       style="fill:none;fill-rule:evenodd;stroke:#dc322f;stroke-width:5;stroke-linecap:butt;stroke-linejoin:miter;stroke-miterlimit:4;stroke-dasharray:none;stroke-opacity:1"
       d="m 667.47104,331.25677 -349.249,0 0,32.99832 -31.72385,-54.94733"
       id="path5807-3-6"
       inkscape:connector-curvature="0"
       sodipodi:nodetypes="cccc" />
    <path
       style="fill:none;fill-rule:evenodd;stroke:#dc322f;stroke-width:5;stroke-linecap:butt;stroke-linejoin:miter;stroke-miterlimit:4;stroke-dasharray:none;stroke-opacity:1"
       d="m 662.76619,288.87302 399.24891,0 0,-32.99832 31.7239,54.94733"
       id="path5807-5"
       inkscape:connector-curvature="0"
       sodipodi:nodetypes="cccc" />
    <path
       style="fill:none;fill-rule:evenodd;stroke:#dc322f;stroke-width:5;stroke-linecap:butt;stroke-linejoin:miter;stroke-miterlimit:4;stroke-dasharray:none;stroke-opacity:1"
       d="m 660.74215,331.25677 401.24905,0 0,32.99832 31.7238,-54.94733"
       id="path5807-3-6-3"
       inkscape:connector-curvature="0"
       sodipodi:nodetypes="cccc" />
    <text
       xml:space="preserve"
       style="font-style:normal;font-variant:normal;font-weight:normal;font-stretch:normal;font-size:40px;line-height:125%;font-family:Lato;-inkscape-font-specification:'Lato, Normal';text-align:start;letter-spacing:0px;word-spacing:0px;writing-mode:lr-tb;text-anchor:start;fill:#dc322f;fill-opacity:1;stroke:none;stroke-width:1px;stroke-linecap:butt;stroke-linejoin:miter;stroke-opacity:1"
       x="657.229"
       y="324.375"
       id="text5874"
       sodipodi:linespacing="125%"><tspan
         sodipodi:role="line"
         id="tspan5876"
         x="657.229"
         y="324.375">Bus</tspan></text>
  </g>
</svg>
